%TF.GenerationSoftware,KiCad,Pcbnew,8.0.2*%
%TF.CreationDate,2024-11-04T20:05:35-05:00*%
%TF.ProjectId,proto,70726f74-6f2e-46b6-9963-61645f706362,rev?*%
%TF.SameCoordinates,Original*%
%TF.FileFunction,Copper,L2,Bot*%
%TF.FilePolarity,Positive*%
%FSLAX46Y46*%
G04 Gerber Fmt 4.6, Leading zero omitted, Abs format (unit mm)*
G04 Created by KiCad (PCBNEW 8.0.2) date 2024-11-04 20:05:35*
%MOMM*%
%LPD*%
G01*
G04 APERTURE LIST*
%TA.AperFunction,ComponentPad*%
%ADD10R,1.700000X1.700000*%
%TD*%
%TA.AperFunction,ComponentPad*%
%ADD11O,1.700000X1.700000*%
%TD*%
%TA.AperFunction,ComponentPad*%
%ADD12C,1.400000*%
%TD*%
%TA.AperFunction,ViaPad*%
%ADD13C,0.600000*%
%TD*%
%TA.AperFunction,Conductor*%
%ADD14C,0.200000*%
%TD*%
G04 APERTURE END LIST*
D10*
%TO.P,J1,1,Pin_1*%
%TO.N,unconnected-(J1-Pin_1-Pad1)*%
X125730000Y-84328000D03*
D11*
%TO.P,J1,2,Pin_2*%
%TO.N,/ESP/conn_uart_rxd*%
X125730000Y-86868000D03*
%TO.P,J1,3,Pin_3*%
%TO.N,/ESP/conn_uart_txd*%
X125730000Y-89408000D03*
%TO.P,J1,4,Pin_4*%
%TO.N,/ESP/ext*%
X125730000Y-91948000D03*
%TO.P,J1,5,Pin_5*%
%TO.N,/ESP/uart_cts*%
X125730000Y-94488000D03*
%TO.P,J1,6,Pin_6*%
%TO.N,GND*%
X125730000Y-97028000D03*
%TD*%
D12*
%TO.P,TP3,1,1*%
%TO.N,Net-(BT1-Pad-)*%
X126492000Y-103616000D03*
X126492000Y-101616000D03*
%TD*%
D10*
%TO.P,J2,1,Pin_1*%
%TO.N,GND*%
X137160000Y-80772000D03*
D11*
%TO.P,J2,2,Pin_2*%
%TO.N,Net-(J2-Pin_2)*%
X134620000Y-80772000D03*
%TO.P,J2,3,Pin_3*%
%TO.N,GND*%
X132080000Y-80772000D03*
%TO.P,J2,4,Pin_4*%
%TO.N,Net-(J2-Pin_4)*%
X129540000Y-80772000D03*
%TD*%
D13*
%TO.N,GND*%
X133162000Y-103190000D03*
X130556000Y-102108000D03*
X143256000Y-129794000D03*
X143256000Y-131572000D03*
X144780000Y-129794000D03*
X144780000Y-131572000D03*
X144780000Y-126238000D03*
X143256000Y-126238000D03*
X144780000Y-128016000D03*
X143256000Y-128016000D03*
X144780000Y-124460000D03*
X143256000Y-124460000D03*
X141224000Y-75184000D03*
X140462000Y-74422000D03*
X139192000Y-77978000D03*
X125984000Y-79502000D03*
%TO.N,/DIFFAMP/scl*%
X140970000Y-64770000D03*
%TO.N,/DIFFAMP/sda*%
X139954000Y-66802000D03*
X135890000Y-85344000D03*
%TO.N,/DIFFAMP/scl*%
X138684000Y-85344000D03*
%TO.N,GND*%
X132334000Y-90678000D03*
X132334000Y-88900000D03*
X132334000Y-85090000D03*
X132334000Y-86868000D03*
X140716000Y-88900000D03*
X140716000Y-90678000D03*
X140716000Y-85090000D03*
X140716000Y-86868000D03*
%TO.N,/DIFFAMP/3v3*%
X138684000Y-81026000D03*
%TO.N,GND*%
X136144000Y-91186000D03*
%TO.N,/ESP/en*%
X129540000Y-77978000D03*
%TO.N,/ESP/uart_cts*%
X130810000Y-84074000D03*
%TO.N,/ESP/en*%
X129032000Y-84074000D03*
%TO.N,/ESP/conn_uart_txd*%
X138430000Y-60706000D03*
%TO.N,/ESP/conn_uart_rxd*%
X135382000Y-62700000D03*
%TD*%
D14*
%TO.N,/DIFFAMP/scl*%
X138176000Y-78232000D02*
X138176000Y-69596000D01*
X139954000Y-80010000D02*
X138176000Y-78232000D01*
X138176000Y-69596000D02*
X140970000Y-66802000D01*
X140970000Y-66802000D02*
X140970000Y-64770000D01*
X139954000Y-84074000D02*
X139954000Y-80010000D01*
X138684000Y-85344000D02*
X139954000Y-84074000D01*
%TO.N,/DIFFAMP/sda*%
X137414000Y-69342000D02*
X139954000Y-66802000D01*
X139284000Y-80356000D02*
X137414000Y-78486000D01*
X139284000Y-81950000D02*
X139284000Y-80356000D01*
X137414000Y-78486000D02*
X137414000Y-69342000D01*
X135890000Y-85344000D02*
X139284000Y-81950000D01*
%TO.N,/ESP/en*%
X128016000Y-79502000D02*
X129540000Y-77978000D01*
X128016000Y-83058000D02*
X128016000Y-79502000D01*
X129032000Y-84074000D02*
X128016000Y-83058000D01*
%TO.N,/ESP/conn_uart_txd*%
X128270000Y-77724000D02*
X128270000Y-70866000D01*
X127508000Y-78486000D02*
X128270000Y-77724000D01*
X127508000Y-87630000D02*
X127508000Y-78486000D01*
X125730000Y-89408000D02*
X127508000Y-87630000D01*
X128270000Y-70866000D02*
X138430000Y-60706000D01*
%TO.N,/ESP/conn_uart_rxd*%
X127000000Y-85598000D02*
X125730000Y-86868000D01*
X127000000Y-71082000D02*
X127000000Y-85598000D01*
X135382000Y-62700000D02*
X127000000Y-71082000D01*
%TO.N,/ESP/uart_cts*%
X129032000Y-85852000D02*
X130810000Y-84074000D01*
X129032000Y-91186000D02*
X129032000Y-85852000D01*
X125730000Y-94488000D02*
X129032000Y-91186000D01*
%TD*%
%TA.AperFunction,Conductor*%
%TO.N,GND*%
G36*
X125173039Y-52220185D02*
G01*
X125218794Y-52272989D01*
X125230000Y-52324500D01*
X125230000Y-59400000D01*
X141470000Y-59400000D01*
X141470000Y-52324500D01*
X141489685Y-52257461D01*
X141542489Y-52211706D01*
X141594000Y-52200500D01*
X142075500Y-52200500D01*
X142142539Y-52220185D01*
X142188294Y-52272989D01*
X142199500Y-52324500D01*
X142199500Y-91400118D01*
X142199500Y-91479882D01*
X142230024Y-91553574D01*
X142286426Y-91609976D01*
X142360118Y-91640500D01*
X145725500Y-91640500D01*
X145792539Y-91660185D01*
X145838294Y-91712989D01*
X145849500Y-91764500D01*
X145849500Y-101275500D01*
X145829815Y-101342539D01*
X145777011Y-101388294D01*
X145725500Y-101399500D01*
X142360116Y-101399500D01*
X142286425Y-101430024D01*
X142230024Y-101486425D01*
X142199500Y-101560116D01*
X142199500Y-101560118D01*
X142199500Y-123229882D01*
X142230024Y-123303574D01*
X142286426Y-123359976D01*
X142360118Y-123390500D01*
X142439882Y-123390500D01*
X145725500Y-123390500D01*
X145792539Y-123410185D01*
X145838294Y-123462989D01*
X145849500Y-123514500D01*
X145849500Y-133025500D01*
X145829815Y-133092539D01*
X145777011Y-133138294D01*
X145725500Y-133149500D01*
X124624500Y-133149500D01*
X124557461Y-133129815D01*
X124511706Y-133077011D01*
X124500500Y-133025500D01*
X124500500Y-101616000D01*
X125586540Y-101616000D01*
X125606326Y-101804256D01*
X125606327Y-101804259D01*
X125664818Y-101984277D01*
X125664821Y-101984284D01*
X125759467Y-102148216D01*
X125886129Y-102288888D01*
X126039265Y-102400148D01*
X126039270Y-102400151D01*
X126212192Y-102477142D01*
X126212197Y-102477144D01*
X126294839Y-102494710D01*
X126356321Y-102527902D01*
X126390097Y-102589065D01*
X126385445Y-102658780D01*
X126343840Y-102714912D01*
X126294839Y-102737290D01*
X126212197Y-102754855D01*
X126212192Y-102754857D01*
X126039270Y-102831848D01*
X126039265Y-102831851D01*
X125886129Y-102943111D01*
X125759466Y-103083785D01*
X125664821Y-103247715D01*
X125664818Y-103247722D01*
X125606327Y-103427740D01*
X125606326Y-103427744D01*
X125586540Y-103616000D01*
X125606326Y-103804256D01*
X125606327Y-103804259D01*
X125664818Y-103984277D01*
X125664821Y-103984284D01*
X125759467Y-104148216D01*
X125886129Y-104288888D01*
X126039265Y-104400148D01*
X126039270Y-104400151D01*
X126212192Y-104477142D01*
X126212197Y-104477144D01*
X126397354Y-104516500D01*
X126397355Y-104516500D01*
X126586644Y-104516500D01*
X126586646Y-104516500D01*
X126771803Y-104477144D01*
X126944730Y-104400151D01*
X127097871Y-104288888D01*
X127224533Y-104148216D01*
X127319179Y-103984284D01*
X127377674Y-103804256D01*
X127397460Y-103616000D01*
X127377674Y-103427744D01*
X127319179Y-103247716D01*
X127224533Y-103083784D01*
X127097871Y-102943112D01*
X127097870Y-102943111D01*
X126944734Y-102831851D01*
X126944729Y-102831848D01*
X126771807Y-102754857D01*
X126771800Y-102754855D01*
X126689161Y-102737290D01*
X126627679Y-102704098D01*
X126593902Y-102642935D01*
X126598554Y-102573221D01*
X126640158Y-102517088D01*
X126689161Y-102494710D01*
X126695201Y-102493426D01*
X126771803Y-102477144D01*
X126944730Y-102400151D01*
X127097871Y-102288888D01*
X127224533Y-102148216D01*
X127319179Y-101984284D01*
X127377674Y-101804256D01*
X127397460Y-101616000D01*
X127377674Y-101427744D01*
X127319179Y-101247716D01*
X127224533Y-101083784D01*
X127097871Y-100943112D01*
X127097870Y-100943111D01*
X126944734Y-100831851D01*
X126944729Y-100831848D01*
X126771807Y-100754857D01*
X126771802Y-100754855D01*
X126626001Y-100723865D01*
X126586646Y-100715500D01*
X126397354Y-100715500D01*
X126364897Y-100722398D01*
X126212197Y-100754855D01*
X126212192Y-100754857D01*
X126039270Y-100831848D01*
X126039265Y-100831851D01*
X125886129Y-100943111D01*
X125759466Y-101083785D01*
X125664821Y-101247715D01*
X125664818Y-101247722D01*
X125619144Y-101388294D01*
X125606326Y-101427744D01*
X125586540Y-101616000D01*
X124500500Y-101616000D01*
X124500500Y-97028000D01*
X124875318Y-97028000D01*
X124893995Y-97205700D01*
X124893996Y-97205702D01*
X124949206Y-97375624D01*
X124949209Y-97375630D01*
X125038545Y-97530365D01*
X125038549Y-97530370D01*
X125158105Y-97663152D01*
X125158107Y-97663153D01*
X125302654Y-97768173D01*
X125302659Y-97768176D01*
X125465884Y-97840849D01*
X125465889Y-97840851D01*
X125640661Y-97878000D01*
X125819339Y-97878000D01*
X125994110Y-97840851D01*
X125994115Y-97840849D01*
X126157340Y-97768176D01*
X126157345Y-97768173D01*
X126301892Y-97663153D01*
X126301894Y-97663152D01*
X126421450Y-97530370D01*
X126421454Y-97530365D01*
X126510790Y-97375630D01*
X126510793Y-97375624D01*
X126566003Y-97205702D01*
X126566004Y-97205700D01*
X126584681Y-97028000D01*
X126566004Y-96850299D01*
X126566003Y-96850297D01*
X126510793Y-96680375D01*
X126510790Y-96680369D01*
X126421454Y-96525634D01*
X126421450Y-96525629D01*
X126301894Y-96392847D01*
X126301892Y-96392846D01*
X126157345Y-96287826D01*
X126157340Y-96287823D01*
X125994115Y-96215150D01*
X125994110Y-96215148D01*
X125819339Y-96178000D01*
X125640661Y-96178000D01*
X125465889Y-96215148D01*
X125465884Y-96215150D01*
X125302659Y-96287823D01*
X125302654Y-96287826D01*
X125158107Y-96392846D01*
X125158105Y-96392847D01*
X125038549Y-96525629D01*
X125038545Y-96525634D01*
X124949209Y-96680369D01*
X124949206Y-96680375D01*
X124893996Y-96850297D01*
X124893995Y-96850299D01*
X124875318Y-97028000D01*
X124500500Y-97028000D01*
X124500500Y-94889683D01*
X124520185Y-94822644D01*
X124572989Y-94776889D01*
X124642147Y-94766945D01*
X124705703Y-94795970D01*
X124743161Y-94853689D01*
X124754768Y-94891955D01*
X124754769Y-94891956D01*
X124852315Y-95074450D01*
X124852317Y-95074452D01*
X124983589Y-95234410D01*
X125080209Y-95313702D01*
X125143550Y-95365685D01*
X125326046Y-95463232D01*
X125524066Y-95523300D01*
X125524065Y-95523300D01*
X125542529Y-95525118D01*
X125730000Y-95543583D01*
X125935934Y-95523300D01*
X126133954Y-95463232D01*
X126316450Y-95365685D01*
X126476410Y-95234410D01*
X126607685Y-95074450D01*
X126705232Y-94891954D01*
X126765300Y-94693934D01*
X126785583Y-94488000D01*
X126765300Y-94282066D01*
X126705232Y-94084046D01*
X126702264Y-94078493D01*
X126697620Y-94069804D01*
X126683379Y-94001401D01*
X126708380Y-93936157D01*
X126719290Y-93923679D01*
X129272460Y-91370511D01*
X129281341Y-91355128D01*
X129297912Y-91326427D01*
X129301984Y-91319372D01*
X129312021Y-91301989D01*
X129332500Y-91225562D01*
X129332500Y-86027832D01*
X129352185Y-85960793D01*
X129368814Y-85940156D01*
X129964970Y-85344000D01*
X135384353Y-85344000D01*
X135404834Y-85486456D01*
X135449246Y-85583703D01*
X135464623Y-85617373D01*
X135558872Y-85726143D01*
X135679947Y-85803953D01*
X135679950Y-85803954D01*
X135679949Y-85803954D01*
X135818036Y-85844499D01*
X135818038Y-85844500D01*
X135818039Y-85844500D01*
X135961962Y-85844500D01*
X135961962Y-85844499D01*
X136100053Y-85803953D01*
X136221128Y-85726143D01*
X136315377Y-85617373D01*
X136375165Y-85486457D01*
X136395647Y-85344000D01*
X136394339Y-85334905D01*
X136404279Y-85265749D01*
X136429392Y-85229577D01*
X139441821Y-82217149D01*
X139503142Y-82183666D01*
X139572834Y-82188650D01*
X139628767Y-82230522D01*
X139653184Y-82295986D01*
X139653500Y-82304832D01*
X139653500Y-83898166D01*
X139633815Y-83965205D01*
X139617181Y-83985847D01*
X138795847Y-84807181D01*
X138734524Y-84840666D01*
X138708166Y-84843500D01*
X138612036Y-84843500D01*
X138473949Y-84884045D01*
X138352873Y-84961856D01*
X138258623Y-85070626D01*
X138258622Y-85070628D01*
X138198834Y-85201543D01*
X138178353Y-85344000D01*
X138198834Y-85486456D01*
X138243246Y-85583703D01*
X138258623Y-85617373D01*
X138352872Y-85726143D01*
X138473947Y-85803953D01*
X138473950Y-85803954D01*
X138473949Y-85803954D01*
X138612036Y-85844499D01*
X138612038Y-85844500D01*
X138612039Y-85844500D01*
X138755962Y-85844500D01*
X138755962Y-85844499D01*
X138894053Y-85803953D01*
X139015128Y-85726143D01*
X139109377Y-85617373D01*
X139169165Y-85486457D01*
X139189647Y-85344000D01*
X139188339Y-85334905D01*
X139198279Y-85265749D01*
X139223392Y-85229577D01*
X140194460Y-84258511D01*
X140197017Y-84254082D01*
X140234021Y-84189989D01*
X140254500Y-84113562D01*
X140254500Y-79970438D01*
X140234022Y-79894012D01*
X140194460Y-79825489D01*
X138512819Y-78143848D01*
X138479334Y-78082525D01*
X138476500Y-78056167D01*
X138476500Y-69771833D01*
X138496185Y-69704794D01*
X138512819Y-69684152D01*
X139095431Y-69101540D01*
X141210460Y-66986511D01*
X141250022Y-66917988D01*
X141270500Y-66841562D01*
X141270500Y-66762438D01*
X141270500Y-65233738D01*
X141290185Y-65166699D01*
X141300787Y-65152535D01*
X141301124Y-65152144D01*
X141301128Y-65152143D01*
X141395377Y-65043373D01*
X141455165Y-64912457D01*
X141475647Y-64770000D01*
X141455165Y-64627543D01*
X141395377Y-64496627D01*
X141301128Y-64387857D01*
X141180053Y-64310047D01*
X141180051Y-64310046D01*
X141180049Y-64310045D01*
X141180050Y-64310045D01*
X141041963Y-64269500D01*
X141041961Y-64269500D01*
X140898039Y-64269500D01*
X140898036Y-64269500D01*
X140759949Y-64310045D01*
X140638873Y-64387856D01*
X140544623Y-64496626D01*
X140544622Y-64496628D01*
X140484834Y-64627543D01*
X140464353Y-64770000D01*
X140484834Y-64912456D01*
X140544622Y-65043371D01*
X140544623Y-65043373D01*
X140638872Y-65152143D01*
X140638875Y-65152144D01*
X140639213Y-65152535D01*
X140668238Y-65216091D01*
X140669500Y-65233738D01*
X140669500Y-66593888D01*
X140649815Y-66660927D01*
X140597011Y-66706682D01*
X140527853Y-66716626D01*
X140464297Y-66687601D01*
X140432706Y-66645400D01*
X140379377Y-66528628D01*
X140379376Y-66528626D01*
X140285128Y-66419857D01*
X140164053Y-66342047D01*
X140164051Y-66342046D01*
X140164049Y-66342045D01*
X140164050Y-66342045D01*
X140025963Y-66301500D01*
X140025961Y-66301500D01*
X139882039Y-66301500D01*
X139882036Y-66301500D01*
X139743949Y-66342045D01*
X139622873Y-66419856D01*
X139528623Y-66528626D01*
X139528622Y-66528628D01*
X139468834Y-66659543D01*
X139448353Y-66802000D01*
X139448353Y-66802001D01*
X139449661Y-66811103D01*
X139439713Y-66880261D01*
X139414603Y-66916424D01*
X137229489Y-69101540D01*
X137173541Y-69157487D01*
X137173535Y-69157495D01*
X137133982Y-69226004D01*
X137133979Y-69226009D01*
X137120326Y-69276962D01*
X137113500Y-69302438D01*
X137113500Y-78525562D01*
X137126520Y-78574152D01*
X137133979Y-78601990D01*
X137133982Y-78601995D01*
X137173535Y-78670504D01*
X137173541Y-78670512D01*
X138816848Y-80313819D01*
X138850333Y-80375142D01*
X138845349Y-80444834D01*
X138803477Y-80500767D01*
X138738013Y-80525184D01*
X138729167Y-80525500D01*
X138612036Y-80525500D01*
X138473949Y-80566045D01*
X138352873Y-80643856D01*
X138258623Y-80752626D01*
X138258622Y-80752628D01*
X138246794Y-80778528D01*
X138201039Y-80831332D01*
X138133999Y-80851016D01*
X138066960Y-80831331D01*
X138021205Y-80778527D01*
X138010000Y-80727016D01*
X138010000Y-79922000D01*
X136310000Y-79922000D01*
X136310000Y-81622000D01*
X138010000Y-81622000D01*
X138010000Y-81324983D01*
X138029685Y-81257944D01*
X138082489Y-81212189D01*
X138151647Y-81202245D01*
X138215203Y-81231270D01*
X138246793Y-81273469D01*
X138258623Y-81299373D01*
X138352872Y-81408143D01*
X138473947Y-81485953D01*
X138473950Y-81485954D01*
X138473949Y-81485954D01*
X138612036Y-81526499D01*
X138612038Y-81526500D01*
X138612039Y-81526500D01*
X138755961Y-81526500D01*
X138824566Y-81506356D01*
X138894434Y-81506356D01*
X138953213Y-81544130D01*
X138982238Y-81607686D01*
X138983500Y-81625333D01*
X138983500Y-81774166D01*
X138963815Y-81841205D01*
X138947181Y-81861847D01*
X136001847Y-84807181D01*
X135940524Y-84840666D01*
X135914166Y-84843500D01*
X135818036Y-84843500D01*
X135679949Y-84884045D01*
X135558873Y-84961856D01*
X135464623Y-85070626D01*
X135464622Y-85070628D01*
X135404834Y-85201543D01*
X135384353Y-85344000D01*
X129964970Y-85344000D01*
X130698151Y-84610818D01*
X130759474Y-84577334D01*
X130785832Y-84574500D01*
X130881962Y-84574500D01*
X130881962Y-84574499D01*
X131020053Y-84533953D01*
X131141128Y-84456143D01*
X131235377Y-84347373D01*
X131295165Y-84216457D01*
X131315647Y-84074000D01*
X131295165Y-83931543D01*
X131235377Y-83800627D01*
X131141128Y-83691857D01*
X131020053Y-83614047D01*
X131020051Y-83614046D01*
X131020049Y-83614045D01*
X131020050Y-83614045D01*
X130881963Y-83573500D01*
X130881961Y-83573500D01*
X130738039Y-83573500D01*
X130738036Y-83573500D01*
X130599949Y-83614045D01*
X130478873Y-83691856D01*
X130384623Y-83800626D01*
X130384622Y-83800628D01*
X130324834Y-83931543D01*
X130304353Y-84074000D01*
X130304353Y-84074001D01*
X130305661Y-84083103D01*
X130295713Y-84152261D01*
X130270603Y-84188424D01*
X128847489Y-85611540D01*
X128791541Y-85667487D01*
X128791535Y-85667495D01*
X128751982Y-85736004D01*
X128751979Y-85736009D01*
X128738326Y-85786962D01*
X128733774Y-85803954D01*
X128731500Y-85812439D01*
X128731500Y-91010166D01*
X128711815Y-91077205D01*
X128695181Y-91097847D01*
X126294326Y-93498701D01*
X126233003Y-93532186D01*
X126163311Y-93527202D01*
X126148193Y-93520379D01*
X126133956Y-93512769D01*
X126133955Y-93512768D01*
X126133954Y-93512768D01*
X125935934Y-93452700D01*
X125935932Y-93452699D01*
X125935934Y-93452699D01*
X125730000Y-93432417D01*
X125524067Y-93452699D01*
X125326043Y-93512769D01*
X125215898Y-93571643D01*
X125143550Y-93610315D01*
X125143548Y-93610316D01*
X125143547Y-93610317D01*
X124983589Y-93741589D01*
X124852317Y-93901547D01*
X124754769Y-94084043D01*
X124754768Y-94084045D01*
X124754768Y-94084046D01*
X124754080Y-94086316D01*
X124743161Y-94122311D01*
X124704863Y-94180750D01*
X124641051Y-94209206D01*
X124571984Y-94198646D01*
X124519590Y-94152422D01*
X124500500Y-94086316D01*
X124500500Y-92349683D01*
X124520185Y-92282644D01*
X124572989Y-92236889D01*
X124642147Y-92226945D01*
X124705703Y-92255970D01*
X124743161Y-92313689D01*
X124754768Y-92351955D01*
X124754769Y-92351956D01*
X124852315Y-92534450D01*
X124852317Y-92534452D01*
X124983589Y-92694410D01*
X125080209Y-92773702D01*
X125143550Y-92825685D01*
X125326046Y-92923232D01*
X125524066Y-92983300D01*
X125524065Y-92983300D01*
X125542529Y-92985118D01*
X125730000Y-93003583D01*
X125935934Y-92983300D01*
X126133954Y-92923232D01*
X126316450Y-92825685D01*
X126476410Y-92694410D01*
X126607685Y-92534450D01*
X126705232Y-92351954D01*
X126765300Y-92153934D01*
X126785583Y-91948000D01*
X126765300Y-91742066D01*
X126705232Y-91544046D01*
X126607685Y-91361550D01*
X126507522Y-91239500D01*
X126476410Y-91201589D01*
X126349998Y-91097847D01*
X126316450Y-91070315D01*
X126133954Y-90972768D01*
X125935934Y-90912700D01*
X125935932Y-90912699D01*
X125935934Y-90912699D01*
X125730000Y-90892417D01*
X125524067Y-90912699D01*
X125326043Y-90972769D01*
X125215898Y-91031643D01*
X125143550Y-91070315D01*
X125143548Y-91070316D01*
X125143547Y-91070317D01*
X124983589Y-91201589D01*
X124852317Y-91361547D01*
X124852315Y-91361550D01*
X124847525Y-91370512D01*
X124754769Y-91544043D01*
X124754768Y-91544045D01*
X124754768Y-91544046D01*
X124754080Y-91546316D01*
X124743161Y-91582311D01*
X124704863Y-91640750D01*
X124641051Y-91669206D01*
X124571984Y-91658646D01*
X124519590Y-91612422D01*
X124500500Y-91546316D01*
X124500500Y-89809683D01*
X124520185Y-89742644D01*
X124572989Y-89696889D01*
X124642147Y-89686945D01*
X124705703Y-89715970D01*
X124743161Y-89773689D01*
X124754768Y-89811955D01*
X124754769Y-89811956D01*
X124852315Y-89994450D01*
X124852317Y-89994452D01*
X124983589Y-90154410D01*
X125080209Y-90233702D01*
X125143550Y-90285685D01*
X125326046Y-90383232D01*
X125524066Y-90443300D01*
X125524065Y-90443300D01*
X125542529Y-90445118D01*
X125730000Y-90463583D01*
X125935934Y-90443300D01*
X126133954Y-90383232D01*
X126316450Y-90285685D01*
X126476410Y-90154410D01*
X126607685Y-89994450D01*
X126705232Y-89811954D01*
X126765300Y-89613934D01*
X126785583Y-89408000D01*
X126765300Y-89202066D01*
X126705232Y-89004046D01*
X126697620Y-88989806D01*
X126683379Y-88921404D01*
X126708379Y-88856160D01*
X126719298Y-88843672D01*
X127190271Y-88372699D01*
X127748460Y-87814511D01*
X127788022Y-87745988D01*
X127808500Y-87669562D01*
X127808500Y-87590438D01*
X127808500Y-83574833D01*
X127828185Y-83507794D01*
X127880989Y-83462039D01*
X127950147Y-83452095D01*
X128013703Y-83481120D01*
X128020181Y-83487152D01*
X128492604Y-83959575D01*
X128526089Y-84020898D01*
X128527661Y-84064902D01*
X128526353Y-84073999D01*
X128546834Y-84216456D01*
X128606622Y-84347371D01*
X128606623Y-84347373D01*
X128700872Y-84456143D01*
X128821947Y-84533953D01*
X128821950Y-84533954D01*
X128821949Y-84533954D01*
X128929107Y-84565417D01*
X128957280Y-84573690D01*
X128960036Y-84574499D01*
X128960038Y-84574500D01*
X128960039Y-84574500D01*
X129103962Y-84574500D01*
X129103962Y-84574499D01*
X129242053Y-84533953D01*
X129363128Y-84456143D01*
X129457377Y-84347373D01*
X129517165Y-84216457D01*
X129537647Y-84074000D01*
X129517165Y-83931543D01*
X129457377Y-83800627D01*
X129363128Y-83691857D01*
X129242053Y-83614047D01*
X129242051Y-83614046D01*
X129242049Y-83614045D01*
X129242050Y-83614045D01*
X129103963Y-83573500D01*
X129103961Y-83573500D01*
X129007833Y-83573500D01*
X128940794Y-83553815D01*
X128920152Y-83537181D01*
X128352819Y-82969848D01*
X128319334Y-82908525D01*
X128316500Y-82882167D01*
X128316500Y-81193463D01*
X128336185Y-81126424D01*
X128388989Y-81080669D01*
X128458147Y-81070725D01*
X128521703Y-81099750D01*
X128559159Y-81157466D01*
X128564768Y-81175954D01*
X128662315Y-81358450D01*
X128662317Y-81358452D01*
X128793589Y-81518410D01*
X128874549Y-81584851D01*
X128953550Y-81649685D01*
X129136046Y-81747232D01*
X129334066Y-81807300D01*
X129334065Y-81807300D01*
X129352529Y-81809118D01*
X129540000Y-81827583D01*
X129745934Y-81807300D01*
X129943954Y-81747232D01*
X130126450Y-81649685D01*
X130286410Y-81518410D01*
X130417685Y-81358450D01*
X130515232Y-81175954D01*
X130575300Y-80977934D01*
X130595583Y-80772000D01*
X131225318Y-80772000D01*
X131243995Y-80949700D01*
X131243996Y-80949702D01*
X131299206Y-81119624D01*
X131299209Y-81119630D01*
X131388545Y-81274365D01*
X131388549Y-81274370D01*
X131508105Y-81407152D01*
X131508107Y-81407153D01*
X131652654Y-81512173D01*
X131652659Y-81512176D01*
X131815884Y-81584849D01*
X131815889Y-81584851D01*
X131990661Y-81622000D01*
X132169339Y-81622000D01*
X132344110Y-81584851D01*
X132344115Y-81584849D01*
X132507340Y-81512176D01*
X132507345Y-81512173D01*
X132651892Y-81407153D01*
X132651894Y-81407152D01*
X132771450Y-81274370D01*
X132771454Y-81274365D01*
X132860790Y-81119630D01*
X132860793Y-81119624D01*
X132916003Y-80949702D01*
X132916004Y-80949700D01*
X132934681Y-80772000D01*
X133564417Y-80772000D01*
X133584699Y-80977932D01*
X133614734Y-81076944D01*
X133644768Y-81175954D01*
X133742315Y-81358450D01*
X133742317Y-81358452D01*
X133873589Y-81518410D01*
X133954549Y-81584851D01*
X134033550Y-81649685D01*
X134216046Y-81747232D01*
X134414066Y-81807300D01*
X134414065Y-81807300D01*
X134432529Y-81809118D01*
X134620000Y-81827583D01*
X134825934Y-81807300D01*
X135023954Y-81747232D01*
X135206450Y-81649685D01*
X135366410Y-81518410D01*
X135497685Y-81358450D01*
X135595232Y-81175954D01*
X135655300Y-80977934D01*
X135675583Y-80772000D01*
X135655300Y-80566066D01*
X135595232Y-80368046D01*
X135497685Y-80185550D01*
X135371528Y-80031826D01*
X135366410Y-80025589D01*
X135206452Y-79894317D01*
X135206453Y-79894317D01*
X135206450Y-79894315D01*
X135023954Y-79796768D01*
X134825934Y-79736700D01*
X134825932Y-79736699D01*
X134825934Y-79736699D01*
X134620000Y-79716417D01*
X134414067Y-79736699D01*
X134216043Y-79796769D01*
X134162313Y-79825489D01*
X134033550Y-79894315D01*
X134033548Y-79894316D01*
X134033547Y-79894317D01*
X133873589Y-80025589D01*
X133742317Y-80185547D01*
X133644769Y-80368043D01*
X133644768Y-80368045D01*
X133644768Y-80368046D01*
X133639160Y-80386532D01*
X133584699Y-80566067D01*
X133564417Y-80772000D01*
X132934681Y-80772000D01*
X132916004Y-80594299D01*
X132916003Y-80594297D01*
X132860793Y-80424375D01*
X132860790Y-80424369D01*
X132771454Y-80269634D01*
X132771450Y-80269629D01*
X132651894Y-80136847D01*
X132651892Y-80136846D01*
X132507345Y-80031826D01*
X132507340Y-80031823D01*
X132344115Y-79959150D01*
X132344110Y-79959148D01*
X132169339Y-79922000D01*
X131990661Y-79922000D01*
X131815889Y-79959148D01*
X131815884Y-79959150D01*
X131652659Y-80031823D01*
X131652654Y-80031826D01*
X131508107Y-80136846D01*
X131508105Y-80136847D01*
X131388549Y-80269629D01*
X131388545Y-80269634D01*
X131299209Y-80424369D01*
X131299206Y-80424375D01*
X131243996Y-80594297D01*
X131243995Y-80594299D01*
X131225318Y-80772000D01*
X130595583Y-80772000D01*
X130575300Y-80566066D01*
X130515232Y-80368046D01*
X130417685Y-80185550D01*
X130291528Y-80031826D01*
X130286410Y-80025589D01*
X130126452Y-79894317D01*
X130126453Y-79894317D01*
X130126450Y-79894315D01*
X129943954Y-79796768D01*
X129745934Y-79736700D01*
X129745932Y-79736699D01*
X129745934Y-79736699D01*
X129540000Y-79716417D01*
X129334067Y-79736699D01*
X129136043Y-79796769D01*
X129082313Y-79825489D01*
X128953550Y-79894315D01*
X128953548Y-79894316D01*
X128953547Y-79894317D01*
X128793589Y-80025589D01*
X128662317Y-80185547D01*
X128564767Y-80368046D01*
X128559160Y-80386532D01*
X128520863Y-80444970D01*
X128457050Y-80473427D01*
X128387983Y-80462866D01*
X128335590Y-80416641D01*
X128316500Y-80350536D01*
X128316500Y-79677832D01*
X128336185Y-79610793D01*
X128352814Y-79590155D01*
X129428151Y-78514818D01*
X129489474Y-78481334D01*
X129515832Y-78478500D01*
X129611962Y-78478500D01*
X129611962Y-78478499D01*
X129750053Y-78437953D01*
X129871128Y-78360143D01*
X129965377Y-78251373D01*
X130025165Y-78120457D01*
X130045647Y-77978000D01*
X130025165Y-77835543D01*
X129965377Y-77704627D01*
X129871128Y-77595857D01*
X129750053Y-77518047D01*
X129750051Y-77518046D01*
X129750049Y-77518045D01*
X129750050Y-77518045D01*
X129611963Y-77477500D01*
X129611961Y-77477500D01*
X129468039Y-77477500D01*
X129468036Y-77477500D01*
X129329949Y-77518045D01*
X129208873Y-77595856D01*
X129114623Y-77704626D01*
X129114622Y-77704628D01*
X129054834Y-77835543D01*
X129034353Y-77978000D01*
X129034353Y-77978001D01*
X129035661Y-77987103D01*
X129025713Y-78056261D01*
X129000603Y-78092424D01*
X128020181Y-79072847D01*
X127958858Y-79106332D01*
X127889167Y-79101348D01*
X127833233Y-79059476D01*
X127808816Y-78994012D01*
X127808500Y-78985166D01*
X127808500Y-78661833D01*
X127828185Y-78594794D01*
X127844819Y-78574152D01*
X128173431Y-78245540D01*
X128510460Y-77908511D01*
X128550022Y-77839988D01*
X128570500Y-77763562D01*
X128570500Y-77684438D01*
X128570500Y-71041832D01*
X128590185Y-70974793D01*
X128606814Y-70954156D01*
X138318151Y-61242818D01*
X138379474Y-61209334D01*
X138405832Y-61206500D01*
X138501962Y-61206500D01*
X138501962Y-61206499D01*
X138640053Y-61165953D01*
X138761128Y-61088143D01*
X138855377Y-60979373D01*
X138915165Y-60848457D01*
X138935647Y-60706000D01*
X138915165Y-60563543D01*
X138855377Y-60432627D01*
X138761128Y-60323857D01*
X138640053Y-60246047D01*
X138640051Y-60246046D01*
X138640049Y-60246045D01*
X138640050Y-60246045D01*
X138501963Y-60205500D01*
X138501961Y-60205500D01*
X138358039Y-60205500D01*
X138358036Y-60205500D01*
X138219949Y-60246045D01*
X138098873Y-60323856D01*
X138004623Y-60432626D01*
X138004622Y-60432628D01*
X137944834Y-60563543D01*
X137924353Y-60706000D01*
X137924353Y-60706001D01*
X137925661Y-60715103D01*
X137915713Y-60784261D01*
X137890603Y-60820424D01*
X136078321Y-62632706D01*
X136016998Y-62666191D01*
X135947306Y-62661207D01*
X135891373Y-62619335D01*
X135867902Y-62562671D01*
X135867165Y-62557543D01*
X135807377Y-62426627D01*
X135713128Y-62317857D01*
X135592053Y-62240047D01*
X135592051Y-62240046D01*
X135592049Y-62240045D01*
X135592050Y-62240045D01*
X135453963Y-62199500D01*
X135453961Y-62199500D01*
X135310039Y-62199500D01*
X135310036Y-62199500D01*
X135171949Y-62240045D01*
X135050873Y-62317856D01*
X134956623Y-62426626D01*
X134956622Y-62426628D01*
X134896834Y-62557543D01*
X134876353Y-62700000D01*
X134876353Y-62700001D01*
X134877661Y-62709103D01*
X134867713Y-62778261D01*
X134842603Y-62814424D01*
X126815489Y-70841540D01*
X126759541Y-70897487D01*
X126759535Y-70897495D01*
X126719982Y-70966004D01*
X126719979Y-70966009D01*
X126713425Y-70990471D01*
X126699663Y-71041832D01*
X126699500Y-71042439D01*
X126699500Y-83153500D01*
X126679815Y-83220539D01*
X126627011Y-83266294D01*
X126575500Y-83277500D01*
X124860247Y-83277500D01*
X124801770Y-83289131D01*
X124801769Y-83289132D01*
X124735448Y-83333447D01*
X124727601Y-83345191D01*
X124673988Y-83389995D01*
X124604663Y-83398701D01*
X124541636Y-83368545D01*
X124504918Y-83309102D01*
X124500500Y-83276298D01*
X124500500Y-52324500D01*
X124520185Y-52257461D01*
X124572989Y-52211706D01*
X124624500Y-52200500D01*
X125106000Y-52200500D01*
X125173039Y-52220185D01*
G37*
%TD.AperFunction*%
%TD*%
M02*
