%TF.GenerationSoftware,KiCad,Pcbnew,8.0.2*%
%TF.CreationDate,2024-11-04T20:05:37-05:00*%
%TF.ProjectId,proto,70726f74-6f2e-46b6-9963-61645f706362,rev?*%
%TF.SameCoordinates,Original*%
%TF.FileFunction,Drillmap*%
%TF.FilePolarity,Positive*%
%FSLAX45Y45*%
G04 Gerber Fmt 4.5, Leading zero omitted, Abs format (unit mm)*
G04 Created by KiCad (PCBNEW 8.0.2) date 2024-11-04 20:05:37*
%MOMM*%
%LPD*%
G01*
G04 APERTURE LIST*
%ADD10C,0.050000*%
%ADD11C,0.200000*%
%ADD12C,0.100000*%
G04 APERTURE END LIST*
D10*
X14240000Y-5200000D02*
X12430000Y-5200000D01*
X14240000Y-12319000D02*
X14605000Y-12319000D01*
X12430000Y-5200000D02*
X12430000Y-13335000D01*
X14240000Y-5200000D02*
X14240000Y-9144000D01*
X14240000Y-9144000D02*
X14605000Y-9144000D01*
X14240000Y-10160000D02*
X14605000Y-10160000D01*
X14240000Y-10160000D02*
X14240000Y-12319000D01*
X14605000Y-9144000D02*
X14605000Y-10160000D01*
X12430000Y-13335000D02*
X14605000Y-13335000D01*
X14605000Y-13335000D02*
X14605000Y-12319000D01*
D11*
D12*
X12583400Y-7935200D02*
X12613400Y-7965200D01*
X12613400Y-7935200D02*
X12583400Y-7965200D01*
X12888200Y-8392400D02*
X12918200Y-8422400D01*
X12918200Y-8392400D02*
X12888200Y-8422400D01*
X12939000Y-7782800D02*
X12969000Y-7812800D01*
X12969000Y-7782800D02*
X12939000Y-7812800D01*
X13040600Y-10195800D02*
X13070600Y-10225800D01*
X13070600Y-10195800D02*
X13040600Y-10225800D01*
X13066000Y-8392400D02*
X13096000Y-8422400D01*
X13096000Y-8392400D02*
X13066000Y-8422400D01*
X13218400Y-8494000D02*
X13248400Y-8524000D01*
X13248400Y-8494000D02*
X13218400Y-8524000D01*
X13218400Y-8671800D02*
X13248400Y-8701800D01*
X13248400Y-8671800D02*
X13218400Y-8701800D01*
X13218400Y-8875000D02*
X13248400Y-8905000D01*
X13248400Y-8875000D02*
X13218400Y-8905000D01*
X13218400Y-9052800D02*
X13248400Y-9082800D01*
X13248400Y-9052800D02*
X13218400Y-9082800D01*
X13301200Y-10304000D02*
X13331200Y-10334000D01*
X13331200Y-10304000D02*
X13301200Y-10334000D01*
X13523200Y-6255000D02*
X13553200Y-6285000D01*
X13553200Y-6255000D02*
X13523200Y-6285000D01*
X13574000Y-8519400D02*
X13604000Y-8549400D01*
X13604000Y-8519400D02*
X13574000Y-8549400D01*
X13599400Y-9103600D02*
X13629400Y-9133600D01*
X13629400Y-9103600D02*
X13599400Y-9133600D01*
X13828000Y-6055600D02*
X13858000Y-6085600D01*
X13858000Y-6055600D02*
X13828000Y-6085600D01*
X13853400Y-8087600D02*
X13883400Y-8117600D01*
X13883400Y-8087600D02*
X13853400Y-8117600D01*
X13853400Y-8519400D02*
X13883400Y-8549400D01*
X13883400Y-8519400D02*
X13853400Y-8549400D01*
X13904200Y-7782800D02*
X13934200Y-7812800D01*
X13934200Y-7782800D02*
X13904200Y-7812800D01*
X13980400Y-6665200D02*
X14010400Y-6695200D01*
X14010400Y-6665200D02*
X13980400Y-6695200D01*
X14031200Y-7427200D02*
X14061200Y-7457200D01*
X14061200Y-7427200D02*
X14031200Y-7457200D01*
X14056600Y-8494000D02*
X14086600Y-8524000D01*
X14086600Y-8494000D02*
X14056600Y-8524000D01*
X14056600Y-8671800D02*
X14086600Y-8701800D01*
X14086600Y-8671800D02*
X14056600Y-8701800D01*
X14056600Y-8875000D02*
X14086600Y-8905000D01*
X14086600Y-8875000D02*
X14056600Y-8905000D01*
X14056600Y-9052800D02*
X14086600Y-9082800D01*
X14086600Y-9052800D02*
X14056600Y-9082800D01*
X14082000Y-6462000D02*
X14112000Y-6492000D01*
X14112000Y-6462000D02*
X14082000Y-6492000D01*
X14107400Y-7503400D02*
X14137400Y-7533400D01*
X14137400Y-7503400D02*
X14107400Y-7533400D01*
X14310600Y-12431000D02*
X14340600Y-12461000D01*
X14340600Y-12431000D02*
X14310600Y-12461000D01*
X14310600Y-12608800D02*
X14340600Y-12638800D01*
X14340600Y-12608800D02*
X14310600Y-12638800D01*
X14310600Y-12786600D02*
X14340600Y-12816600D01*
X14340600Y-12786600D02*
X14310600Y-12816600D01*
X14310600Y-12964400D02*
X14340600Y-12994400D01*
X14340600Y-12964400D02*
X14310600Y-12994400D01*
X14310600Y-13142200D02*
X14340600Y-13172200D01*
X14340600Y-13142200D02*
X14310600Y-13172200D01*
X14463000Y-12431000D02*
X14493000Y-12461000D01*
X14493000Y-12431000D02*
X14463000Y-12461000D01*
X14463000Y-12608800D02*
X14493000Y-12638800D01*
X14493000Y-12608800D02*
X14463000Y-12638800D01*
X14463000Y-12786600D02*
X14493000Y-12816600D01*
X14493000Y-12786600D02*
X14463000Y-12816600D01*
X14463000Y-12964400D02*
X14493000Y-12994400D01*
X14493000Y-12964400D02*
X14463000Y-12994400D01*
X14463000Y-13142200D02*
X14493000Y-13172200D01*
X14493000Y-13142200D02*
X14463000Y-13172200D01*
X12684200Y-10161600D02*
G75*
G02*
X12614200Y-10161600I-35000J0D01*
G01*
X12614200Y-10161600D02*
G75*
G02*
X12684200Y-10161600I35000J0D01*
G01*
X12684200Y-10361600D02*
G75*
G02*
X12614200Y-10361600I-35000J0D01*
G01*
X12614200Y-10361600D02*
G75*
G02*
X12684200Y-10361600I35000J0D01*
G01*
X12573000Y-8382800D02*
X12573000Y-8482800D01*
X12523000Y-8432800D02*
X12623000Y-8432800D01*
X12573000Y-8636800D02*
X12573000Y-8736800D01*
X12523000Y-8686800D02*
X12623000Y-8686800D01*
X12573000Y-8890800D02*
X12573000Y-8990800D01*
X12523000Y-8940800D02*
X12623000Y-8940800D01*
X12573000Y-9144800D02*
X12573000Y-9244800D01*
X12523000Y-9194800D02*
X12623000Y-9194800D01*
X12573000Y-9398800D02*
X12573000Y-9498800D01*
X12523000Y-9448800D02*
X12623000Y-9448800D01*
X12573000Y-9652800D02*
X12573000Y-9752800D01*
X12523000Y-9702800D02*
X12623000Y-9702800D01*
X12954000Y-8027200D02*
X12954000Y-8127200D01*
X12904000Y-8077200D02*
X13004000Y-8077200D01*
X13208000Y-8027200D02*
X13208000Y-8127200D01*
X13158000Y-8077200D02*
X13258000Y-8077200D01*
X13462000Y-8027200D02*
X13462000Y-8127200D01*
X13412000Y-8077200D02*
X13512000Y-8077200D01*
X13716000Y-8027200D02*
X13716000Y-8127200D01*
X13666000Y-8077200D02*
X13766000Y-8077200D01*
D11*
X12688277Y-13648984D02*
X12688277Y-13448984D01*
X12688277Y-13448984D02*
X12735896Y-13448984D01*
X12735896Y-13448984D02*
X12764467Y-13458508D01*
X12764467Y-13458508D02*
X12783515Y-13477555D01*
X12783515Y-13477555D02*
X12793039Y-13496603D01*
X12793039Y-13496603D02*
X12802562Y-13534698D01*
X12802562Y-13534698D02*
X12802562Y-13563269D01*
X12802562Y-13563269D02*
X12793039Y-13601365D01*
X12793039Y-13601365D02*
X12783515Y-13620412D01*
X12783515Y-13620412D02*
X12764467Y-13639460D01*
X12764467Y-13639460D02*
X12735896Y-13648984D01*
X12735896Y-13648984D02*
X12688277Y-13648984D01*
X12888277Y-13648984D02*
X12888277Y-13515650D01*
X12888277Y-13553746D02*
X12897801Y-13534698D01*
X12897801Y-13534698D02*
X12907324Y-13525174D01*
X12907324Y-13525174D02*
X12926372Y-13515650D01*
X12926372Y-13515650D02*
X12945420Y-13515650D01*
X13012086Y-13648984D02*
X13012086Y-13515650D01*
X13012086Y-13448984D02*
X13002562Y-13458508D01*
X13002562Y-13458508D02*
X13012086Y-13468031D01*
X13012086Y-13468031D02*
X13021610Y-13458508D01*
X13021610Y-13458508D02*
X13012086Y-13448984D01*
X13012086Y-13448984D02*
X13012086Y-13468031D01*
X13135896Y-13648984D02*
X13116848Y-13639460D01*
X13116848Y-13639460D02*
X13107324Y-13620412D01*
X13107324Y-13620412D02*
X13107324Y-13448984D01*
X13240658Y-13648984D02*
X13221610Y-13639460D01*
X13221610Y-13639460D02*
X13212086Y-13620412D01*
X13212086Y-13620412D02*
X13212086Y-13448984D01*
X13469229Y-13648984D02*
X13469229Y-13448984D01*
X13469229Y-13448984D02*
X13535896Y-13591841D01*
X13535896Y-13591841D02*
X13602562Y-13448984D01*
X13602562Y-13448984D02*
X13602562Y-13648984D01*
X13783515Y-13648984D02*
X13783515Y-13544222D01*
X13783515Y-13544222D02*
X13773991Y-13525174D01*
X13773991Y-13525174D02*
X13754943Y-13515650D01*
X13754943Y-13515650D02*
X13716848Y-13515650D01*
X13716848Y-13515650D02*
X13697801Y-13525174D01*
X13783515Y-13639460D02*
X13764467Y-13648984D01*
X13764467Y-13648984D02*
X13716848Y-13648984D01*
X13716848Y-13648984D02*
X13697801Y-13639460D01*
X13697801Y-13639460D02*
X13688277Y-13620412D01*
X13688277Y-13620412D02*
X13688277Y-13601365D01*
X13688277Y-13601365D02*
X13697801Y-13582317D01*
X13697801Y-13582317D02*
X13716848Y-13572793D01*
X13716848Y-13572793D02*
X13764467Y-13572793D01*
X13764467Y-13572793D02*
X13783515Y-13563269D01*
X13878753Y-13515650D02*
X13878753Y-13715650D01*
X13878753Y-13525174D02*
X13897801Y-13515650D01*
X13897801Y-13515650D02*
X13935896Y-13515650D01*
X13935896Y-13515650D02*
X13954943Y-13525174D01*
X13954943Y-13525174D02*
X13964467Y-13534698D01*
X13964467Y-13534698D02*
X13973991Y-13553746D01*
X13973991Y-13553746D02*
X13973991Y-13610888D01*
X13973991Y-13610888D02*
X13964467Y-13629936D01*
X13964467Y-13629936D02*
X13954943Y-13639460D01*
X13954943Y-13639460D02*
X13935896Y-13648984D01*
X13935896Y-13648984D02*
X13897801Y-13648984D01*
X13897801Y-13648984D02*
X13878753Y-13639460D01*
X14059705Y-13629936D02*
X14069229Y-13639460D01*
X14069229Y-13639460D02*
X14059705Y-13648984D01*
X14059705Y-13648984D02*
X14050182Y-13639460D01*
X14050182Y-13639460D02*
X14059705Y-13629936D01*
X14059705Y-13629936D02*
X14059705Y-13648984D01*
X14059705Y-13525174D02*
X14069229Y-13534698D01*
X14069229Y-13534698D02*
X14059705Y-13544222D01*
X14059705Y-13544222D02*
X14050182Y-13534698D01*
X14050182Y-13534698D02*
X14059705Y-13525174D01*
X14059705Y-13525174D02*
X14059705Y-13544222D01*
D12*
X12397500Y-13962500D02*
X12427500Y-13992500D01*
X12427500Y-13962500D02*
X12397500Y-13992500D01*
D11*
X12726372Y-13868984D02*
X12745420Y-13868984D01*
X12745420Y-13868984D02*
X12764467Y-13878508D01*
X12764467Y-13878508D02*
X12773991Y-13888031D01*
X12773991Y-13888031D02*
X12783515Y-13907079D01*
X12783515Y-13907079D02*
X12793039Y-13945174D01*
X12793039Y-13945174D02*
X12793039Y-13992793D01*
X12793039Y-13992793D02*
X12783515Y-14030888D01*
X12783515Y-14030888D02*
X12773991Y-14049936D01*
X12773991Y-14049936D02*
X12764467Y-14059460D01*
X12764467Y-14059460D02*
X12745420Y-14068984D01*
X12745420Y-14068984D02*
X12726372Y-14068984D01*
X12726372Y-14068984D02*
X12707324Y-14059460D01*
X12707324Y-14059460D02*
X12697801Y-14049936D01*
X12697801Y-14049936D02*
X12688277Y-14030888D01*
X12688277Y-14030888D02*
X12678753Y-13992793D01*
X12678753Y-13992793D02*
X12678753Y-13945174D01*
X12678753Y-13945174D02*
X12688277Y-13907079D01*
X12688277Y-13907079D02*
X12697801Y-13888031D01*
X12697801Y-13888031D02*
X12707324Y-13878508D01*
X12707324Y-13878508D02*
X12726372Y-13868984D01*
X12878753Y-14049936D02*
X12888277Y-14059460D01*
X12888277Y-14059460D02*
X12878753Y-14068984D01*
X12878753Y-14068984D02*
X12869229Y-14059460D01*
X12869229Y-14059460D02*
X12878753Y-14049936D01*
X12878753Y-14049936D02*
X12878753Y-14068984D01*
X12954943Y-13868984D02*
X13078753Y-13868984D01*
X13078753Y-13868984D02*
X13012086Y-13945174D01*
X13012086Y-13945174D02*
X13040658Y-13945174D01*
X13040658Y-13945174D02*
X13059705Y-13954698D01*
X13059705Y-13954698D02*
X13069229Y-13964222D01*
X13069229Y-13964222D02*
X13078753Y-13983269D01*
X13078753Y-13983269D02*
X13078753Y-14030888D01*
X13078753Y-14030888D02*
X13069229Y-14049936D01*
X13069229Y-14049936D02*
X13059705Y-14059460D01*
X13059705Y-14059460D02*
X13040658Y-14068984D01*
X13040658Y-14068984D02*
X12983515Y-14068984D01*
X12983515Y-14068984D02*
X12964467Y-14059460D01*
X12964467Y-14059460D02*
X12954943Y-14049936D01*
X13202562Y-13868984D02*
X13221610Y-13868984D01*
X13221610Y-13868984D02*
X13240658Y-13878508D01*
X13240658Y-13878508D02*
X13250182Y-13888031D01*
X13250182Y-13888031D02*
X13259705Y-13907079D01*
X13259705Y-13907079D02*
X13269229Y-13945174D01*
X13269229Y-13945174D02*
X13269229Y-13992793D01*
X13269229Y-13992793D02*
X13259705Y-14030888D01*
X13259705Y-14030888D02*
X13250182Y-14049936D01*
X13250182Y-14049936D02*
X13240658Y-14059460D01*
X13240658Y-14059460D02*
X13221610Y-14068984D01*
X13221610Y-14068984D02*
X13202562Y-14068984D01*
X13202562Y-14068984D02*
X13183515Y-14059460D01*
X13183515Y-14059460D02*
X13173991Y-14049936D01*
X13173991Y-14049936D02*
X13164467Y-14030888D01*
X13164467Y-14030888D02*
X13154943Y-13992793D01*
X13154943Y-13992793D02*
X13154943Y-13945174D01*
X13154943Y-13945174D02*
X13164467Y-13907079D01*
X13164467Y-13907079D02*
X13173991Y-13888031D01*
X13173991Y-13888031D02*
X13183515Y-13878508D01*
X13183515Y-13878508D02*
X13202562Y-13868984D01*
X13393039Y-13868984D02*
X13412086Y-13868984D01*
X13412086Y-13868984D02*
X13431134Y-13878508D01*
X13431134Y-13878508D02*
X13440658Y-13888031D01*
X13440658Y-13888031D02*
X13450182Y-13907079D01*
X13450182Y-13907079D02*
X13459705Y-13945174D01*
X13459705Y-13945174D02*
X13459705Y-13992793D01*
X13459705Y-13992793D02*
X13450182Y-14030888D01*
X13450182Y-14030888D02*
X13440658Y-14049936D01*
X13440658Y-14049936D02*
X13431134Y-14059460D01*
X13431134Y-14059460D02*
X13412086Y-14068984D01*
X13412086Y-14068984D02*
X13393039Y-14068984D01*
X13393039Y-14068984D02*
X13373991Y-14059460D01*
X13373991Y-14059460D02*
X13364467Y-14049936D01*
X13364467Y-14049936D02*
X13354943Y-14030888D01*
X13354943Y-14030888D02*
X13345420Y-13992793D01*
X13345420Y-13992793D02*
X13345420Y-13945174D01*
X13345420Y-13945174D02*
X13354943Y-13907079D01*
X13354943Y-13907079D02*
X13364467Y-13888031D01*
X13364467Y-13888031D02*
X13373991Y-13878508D01*
X13373991Y-13878508D02*
X13393039Y-13868984D01*
X13545420Y-14068984D02*
X13545420Y-13935650D01*
X13545420Y-13954698D02*
X13554943Y-13945174D01*
X13554943Y-13945174D02*
X13573991Y-13935650D01*
X13573991Y-13935650D02*
X13602563Y-13935650D01*
X13602563Y-13935650D02*
X13621610Y-13945174D01*
X13621610Y-13945174D02*
X13631134Y-13964222D01*
X13631134Y-13964222D02*
X13631134Y-14068984D01*
X13631134Y-13964222D02*
X13640658Y-13945174D01*
X13640658Y-13945174D02*
X13659705Y-13935650D01*
X13659705Y-13935650D02*
X13688277Y-13935650D01*
X13688277Y-13935650D02*
X13707324Y-13945174D01*
X13707324Y-13945174D02*
X13716848Y-13964222D01*
X13716848Y-13964222D02*
X13716848Y-14068984D01*
X13812086Y-14068984D02*
X13812086Y-13935650D01*
X13812086Y-13954698D02*
X13821610Y-13945174D01*
X13821610Y-13945174D02*
X13840658Y-13935650D01*
X13840658Y-13935650D02*
X13869229Y-13935650D01*
X13869229Y-13935650D02*
X13888277Y-13945174D01*
X13888277Y-13945174D02*
X13897801Y-13964222D01*
X13897801Y-13964222D02*
X13897801Y-14068984D01*
X13897801Y-13964222D02*
X13907324Y-13945174D01*
X13907324Y-13945174D02*
X13926372Y-13935650D01*
X13926372Y-13935650D02*
X13954943Y-13935650D01*
X13954943Y-13935650D02*
X13973991Y-13945174D01*
X13973991Y-13945174D02*
X13983515Y-13964222D01*
X13983515Y-13964222D02*
X13983515Y-14068984D01*
X14373991Y-13859460D02*
X14202563Y-14116603D01*
X14631134Y-13868984D02*
X14650182Y-13868984D01*
X14650182Y-13868984D02*
X14669229Y-13878508D01*
X14669229Y-13878508D02*
X14678753Y-13888031D01*
X14678753Y-13888031D02*
X14688277Y-13907079D01*
X14688277Y-13907079D02*
X14697801Y-13945174D01*
X14697801Y-13945174D02*
X14697801Y-13992793D01*
X14697801Y-13992793D02*
X14688277Y-14030888D01*
X14688277Y-14030888D02*
X14678753Y-14049936D01*
X14678753Y-14049936D02*
X14669229Y-14059460D01*
X14669229Y-14059460D02*
X14650182Y-14068984D01*
X14650182Y-14068984D02*
X14631134Y-14068984D01*
X14631134Y-14068984D02*
X14612086Y-14059460D01*
X14612086Y-14059460D02*
X14602563Y-14049936D01*
X14602563Y-14049936D02*
X14593039Y-14030888D01*
X14593039Y-14030888D02*
X14583515Y-13992793D01*
X14583515Y-13992793D02*
X14583515Y-13945174D01*
X14583515Y-13945174D02*
X14593039Y-13907079D01*
X14593039Y-13907079D02*
X14602563Y-13888031D01*
X14602563Y-13888031D02*
X14612086Y-13878508D01*
X14612086Y-13878508D02*
X14631134Y-13868984D01*
X14783515Y-14049936D02*
X14793039Y-14059460D01*
X14793039Y-14059460D02*
X14783515Y-14068984D01*
X14783515Y-14068984D02*
X14773991Y-14059460D01*
X14773991Y-14059460D02*
X14783515Y-14049936D01*
X14783515Y-14049936D02*
X14783515Y-14068984D01*
X14916848Y-13868984D02*
X14935896Y-13868984D01*
X14935896Y-13868984D02*
X14954944Y-13878508D01*
X14954944Y-13878508D02*
X14964467Y-13888031D01*
X14964467Y-13888031D02*
X14973991Y-13907079D01*
X14973991Y-13907079D02*
X14983515Y-13945174D01*
X14983515Y-13945174D02*
X14983515Y-13992793D01*
X14983515Y-13992793D02*
X14973991Y-14030888D01*
X14973991Y-14030888D02*
X14964467Y-14049936D01*
X14964467Y-14049936D02*
X14954944Y-14059460D01*
X14954944Y-14059460D02*
X14935896Y-14068984D01*
X14935896Y-14068984D02*
X14916848Y-14068984D01*
X14916848Y-14068984D02*
X14897801Y-14059460D01*
X14897801Y-14059460D02*
X14888277Y-14049936D01*
X14888277Y-14049936D02*
X14878753Y-14030888D01*
X14878753Y-14030888D02*
X14869229Y-13992793D01*
X14869229Y-13992793D02*
X14869229Y-13945174D01*
X14869229Y-13945174D02*
X14878753Y-13907079D01*
X14878753Y-13907079D02*
X14888277Y-13888031D01*
X14888277Y-13888031D02*
X14897801Y-13878508D01*
X14897801Y-13878508D02*
X14916848Y-13868984D01*
X15173991Y-14068984D02*
X15059706Y-14068984D01*
X15116848Y-14068984D02*
X15116848Y-13868984D01*
X15116848Y-13868984D02*
X15097801Y-13897555D01*
X15097801Y-13897555D02*
X15078753Y-13916603D01*
X15078753Y-13916603D02*
X15059706Y-13926127D01*
X15364467Y-14068984D02*
X15250182Y-14068984D01*
X15307325Y-14068984D02*
X15307325Y-13868984D01*
X15307325Y-13868984D02*
X15288277Y-13897555D01*
X15288277Y-13897555D02*
X15269229Y-13916603D01*
X15269229Y-13916603D02*
X15250182Y-13926127D01*
X15478753Y-13954698D02*
X15459706Y-13945174D01*
X15459706Y-13945174D02*
X15450182Y-13935650D01*
X15450182Y-13935650D02*
X15440658Y-13916603D01*
X15440658Y-13916603D02*
X15440658Y-13907079D01*
X15440658Y-13907079D02*
X15450182Y-13888031D01*
X15450182Y-13888031D02*
X15459706Y-13878508D01*
X15459706Y-13878508D02*
X15478753Y-13868984D01*
X15478753Y-13868984D02*
X15516848Y-13868984D01*
X15516848Y-13868984D02*
X15535896Y-13878508D01*
X15535896Y-13878508D02*
X15545420Y-13888031D01*
X15545420Y-13888031D02*
X15554944Y-13907079D01*
X15554944Y-13907079D02*
X15554944Y-13916603D01*
X15554944Y-13916603D02*
X15545420Y-13935650D01*
X15545420Y-13935650D02*
X15535896Y-13945174D01*
X15535896Y-13945174D02*
X15516848Y-13954698D01*
X15516848Y-13954698D02*
X15478753Y-13954698D01*
X15478753Y-13954698D02*
X15459706Y-13964222D01*
X15459706Y-13964222D02*
X15450182Y-13973746D01*
X15450182Y-13973746D02*
X15440658Y-13992793D01*
X15440658Y-13992793D02*
X15440658Y-14030888D01*
X15440658Y-14030888D02*
X15450182Y-14049936D01*
X15450182Y-14049936D02*
X15459706Y-14059460D01*
X15459706Y-14059460D02*
X15478753Y-14068984D01*
X15478753Y-14068984D02*
X15516848Y-14068984D01*
X15516848Y-14068984D02*
X15535896Y-14059460D01*
X15535896Y-14059460D02*
X15545420Y-14049936D01*
X15545420Y-14049936D02*
X15554944Y-14030888D01*
X15554944Y-14030888D02*
X15554944Y-13992793D01*
X15554944Y-13992793D02*
X15545420Y-13973746D01*
X15545420Y-13973746D02*
X15535896Y-13964222D01*
X15535896Y-13964222D02*
X15516848Y-13954698D01*
X15631134Y-13868984D02*
X15631134Y-13907079D01*
X15707325Y-13868984D02*
X15707325Y-13907079D01*
X16002563Y-14145174D02*
X15993039Y-14135650D01*
X15993039Y-14135650D02*
X15973991Y-14107079D01*
X15973991Y-14107079D02*
X15964468Y-14088031D01*
X15964468Y-14088031D02*
X15954944Y-14059460D01*
X15954944Y-14059460D02*
X15945420Y-14011841D01*
X15945420Y-14011841D02*
X15945420Y-13973746D01*
X15945420Y-13973746D02*
X15954944Y-13926127D01*
X15954944Y-13926127D02*
X15964468Y-13897555D01*
X15964468Y-13897555D02*
X15973991Y-13878508D01*
X15973991Y-13878508D02*
X15993039Y-13849936D01*
X15993039Y-13849936D02*
X16002563Y-13840412D01*
X16059706Y-13868984D02*
X16183515Y-13868984D01*
X16183515Y-13868984D02*
X16116848Y-13945174D01*
X16116848Y-13945174D02*
X16145420Y-13945174D01*
X16145420Y-13945174D02*
X16164468Y-13954698D01*
X16164468Y-13954698D02*
X16173991Y-13964222D01*
X16173991Y-13964222D02*
X16183515Y-13983269D01*
X16183515Y-13983269D02*
X16183515Y-14030888D01*
X16183515Y-14030888D02*
X16173991Y-14049936D01*
X16173991Y-14049936D02*
X16164468Y-14059460D01*
X16164468Y-14059460D02*
X16145420Y-14068984D01*
X16145420Y-14068984D02*
X16088277Y-14068984D01*
X16088277Y-14068984D02*
X16069229Y-14059460D01*
X16069229Y-14059460D02*
X16059706Y-14049936D01*
X16364468Y-13868984D02*
X16269229Y-13868984D01*
X16269229Y-13868984D02*
X16259706Y-13964222D01*
X16259706Y-13964222D02*
X16269229Y-13954698D01*
X16269229Y-13954698D02*
X16288277Y-13945174D01*
X16288277Y-13945174D02*
X16335896Y-13945174D01*
X16335896Y-13945174D02*
X16354944Y-13954698D01*
X16354944Y-13954698D02*
X16364468Y-13964222D01*
X16364468Y-13964222D02*
X16373991Y-13983269D01*
X16373991Y-13983269D02*
X16373991Y-14030888D01*
X16373991Y-14030888D02*
X16364468Y-14049936D01*
X16364468Y-14049936D02*
X16354944Y-14059460D01*
X16354944Y-14059460D02*
X16335896Y-14068984D01*
X16335896Y-14068984D02*
X16288277Y-14068984D01*
X16288277Y-14068984D02*
X16269229Y-14059460D01*
X16269229Y-14059460D02*
X16259706Y-14049936D01*
X16612087Y-14068984D02*
X16612087Y-13868984D01*
X16697801Y-14068984D02*
X16697801Y-13964222D01*
X16697801Y-13964222D02*
X16688277Y-13945174D01*
X16688277Y-13945174D02*
X16669230Y-13935650D01*
X16669230Y-13935650D02*
X16640658Y-13935650D01*
X16640658Y-13935650D02*
X16621610Y-13945174D01*
X16621610Y-13945174D02*
X16612087Y-13954698D01*
X16821611Y-14068984D02*
X16802563Y-14059460D01*
X16802563Y-14059460D02*
X16793039Y-14049936D01*
X16793039Y-14049936D02*
X16783515Y-14030888D01*
X16783515Y-14030888D02*
X16783515Y-13973746D01*
X16783515Y-13973746D02*
X16793039Y-13954698D01*
X16793039Y-13954698D02*
X16802563Y-13945174D01*
X16802563Y-13945174D02*
X16821611Y-13935650D01*
X16821611Y-13935650D02*
X16850182Y-13935650D01*
X16850182Y-13935650D02*
X16869230Y-13945174D01*
X16869230Y-13945174D02*
X16878753Y-13954698D01*
X16878753Y-13954698D02*
X16888277Y-13973746D01*
X16888277Y-13973746D02*
X16888277Y-14030888D01*
X16888277Y-14030888D02*
X16878753Y-14049936D01*
X16878753Y-14049936D02*
X16869230Y-14059460D01*
X16869230Y-14059460D02*
X16850182Y-14068984D01*
X16850182Y-14068984D02*
X16821611Y-14068984D01*
X17002563Y-14068984D02*
X16983515Y-14059460D01*
X16983515Y-14059460D02*
X16973992Y-14040412D01*
X16973992Y-14040412D02*
X16973992Y-13868984D01*
X17154944Y-14059460D02*
X17135896Y-14068984D01*
X17135896Y-14068984D02*
X17097801Y-14068984D01*
X17097801Y-14068984D02*
X17078753Y-14059460D01*
X17078753Y-14059460D02*
X17069230Y-14040412D01*
X17069230Y-14040412D02*
X17069230Y-13964222D01*
X17069230Y-13964222D02*
X17078753Y-13945174D01*
X17078753Y-13945174D02*
X17097801Y-13935650D01*
X17097801Y-13935650D02*
X17135896Y-13935650D01*
X17135896Y-13935650D02*
X17154944Y-13945174D01*
X17154944Y-13945174D02*
X17164468Y-13964222D01*
X17164468Y-13964222D02*
X17164468Y-13983269D01*
X17164468Y-13983269D02*
X17069230Y-14002317D01*
X17240658Y-14059460D02*
X17259706Y-14068984D01*
X17259706Y-14068984D02*
X17297801Y-14068984D01*
X17297801Y-14068984D02*
X17316849Y-14059460D01*
X17316849Y-14059460D02*
X17326373Y-14040412D01*
X17326373Y-14040412D02*
X17326373Y-14030888D01*
X17326373Y-14030888D02*
X17316849Y-14011841D01*
X17316849Y-14011841D02*
X17297801Y-14002317D01*
X17297801Y-14002317D02*
X17269230Y-14002317D01*
X17269230Y-14002317D02*
X17250182Y-13992793D01*
X17250182Y-13992793D02*
X17240658Y-13973746D01*
X17240658Y-13973746D02*
X17240658Y-13964222D01*
X17240658Y-13964222D02*
X17250182Y-13945174D01*
X17250182Y-13945174D02*
X17269230Y-13935650D01*
X17269230Y-13935650D02*
X17297801Y-13935650D01*
X17297801Y-13935650D02*
X17316849Y-13945174D01*
X17393039Y-14145174D02*
X17402563Y-14135650D01*
X17402563Y-14135650D02*
X17421611Y-14107079D01*
X17421611Y-14107079D02*
X17431134Y-14088031D01*
X17431134Y-14088031D02*
X17440658Y-14059460D01*
X17440658Y-14059460D02*
X17450182Y-14011841D01*
X17450182Y-14011841D02*
X17450182Y-13973746D01*
X17450182Y-13973746D02*
X17440658Y-13926127D01*
X17440658Y-13926127D02*
X17431134Y-13897555D01*
X17431134Y-13897555D02*
X17421611Y-13878508D01*
X17421611Y-13878508D02*
X17402563Y-13849936D01*
X17402563Y-13849936D02*
X17393039Y-13840412D01*
D12*
X12427500Y-14241500D02*
G75*
G02*
X12357500Y-14241500I-35000J0D01*
G01*
X12357500Y-14241500D02*
G75*
G02*
X12427500Y-14241500I35000J0D01*
G01*
D11*
X12726372Y-14132984D02*
X12745420Y-14132984D01*
X12745420Y-14132984D02*
X12764467Y-14142508D01*
X12764467Y-14142508D02*
X12773991Y-14152031D01*
X12773991Y-14152031D02*
X12783515Y-14171079D01*
X12783515Y-14171079D02*
X12793039Y-14209174D01*
X12793039Y-14209174D02*
X12793039Y-14256793D01*
X12793039Y-14256793D02*
X12783515Y-14294888D01*
X12783515Y-14294888D02*
X12773991Y-14313936D01*
X12773991Y-14313936D02*
X12764467Y-14323460D01*
X12764467Y-14323460D02*
X12745420Y-14332984D01*
X12745420Y-14332984D02*
X12726372Y-14332984D01*
X12726372Y-14332984D02*
X12707324Y-14323460D01*
X12707324Y-14323460D02*
X12697801Y-14313936D01*
X12697801Y-14313936D02*
X12688277Y-14294888D01*
X12688277Y-14294888D02*
X12678753Y-14256793D01*
X12678753Y-14256793D02*
X12678753Y-14209174D01*
X12678753Y-14209174D02*
X12688277Y-14171079D01*
X12688277Y-14171079D02*
X12697801Y-14152031D01*
X12697801Y-14152031D02*
X12707324Y-14142508D01*
X12707324Y-14142508D02*
X12726372Y-14132984D01*
X12878753Y-14313936D02*
X12888277Y-14323460D01*
X12888277Y-14323460D02*
X12878753Y-14332984D01*
X12878753Y-14332984D02*
X12869229Y-14323460D01*
X12869229Y-14323460D02*
X12878753Y-14313936D01*
X12878753Y-14313936D02*
X12878753Y-14332984D01*
X12954943Y-14132984D02*
X13088277Y-14132984D01*
X13088277Y-14132984D02*
X13002562Y-14332984D01*
X13202562Y-14132984D02*
X13221610Y-14132984D01*
X13221610Y-14132984D02*
X13240658Y-14142508D01*
X13240658Y-14142508D02*
X13250182Y-14152031D01*
X13250182Y-14152031D02*
X13259705Y-14171079D01*
X13259705Y-14171079D02*
X13269229Y-14209174D01*
X13269229Y-14209174D02*
X13269229Y-14256793D01*
X13269229Y-14256793D02*
X13259705Y-14294888D01*
X13259705Y-14294888D02*
X13250182Y-14313936D01*
X13250182Y-14313936D02*
X13240658Y-14323460D01*
X13240658Y-14323460D02*
X13221610Y-14332984D01*
X13221610Y-14332984D02*
X13202562Y-14332984D01*
X13202562Y-14332984D02*
X13183515Y-14323460D01*
X13183515Y-14323460D02*
X13173991Y-14313936D01*
X13173991Y-14313936D02*
X13164467Y-14294888D01*
X13164467Y-14294888D02*
X13154943Y-14256793D01*
X13154943Y-14256793D02*
X13154943Y-14209174D01*
X13154943Y-14209174D02*
X13164467Y-14171079D01*
X13164467Y-14171079D02*
X13173991Y-14152031D01*
X13173991Y-14152031D02*
X13183515Y-14142508D01*
X13183515Y-14142508D02*
X13202562Y-14132984D01*
X13393039Y-14132984D02*
X13412086Y-14132984D01*
X13412086Y-14132984D02*
X13431134Y-14142508D01*
X13431134Y-14142508D02*
X13440658Y-14152031D01*
X13440658Y-14152031D02*
X13450182Y-14171079D01*
X13450182Y-14171079D02*
X13459705Y-14209174D01*
X13459705Y-14209174D02*
X13459705Y-14256793D01*
X13459705Y-14256793D02*
X13450182Y-14294888D01*
X13450182Y-14294888D02*
X13440658Y-14313936D01*
X13440658Y-14313936D02*
X13431134Y-14323460D01*
X13431134Y-14323460D02*
X13412086Y-14332984D01*
X13412086Y-14332984D02*
X13393039Y-14332984D01*
X13393039Y-14332984D02*
X13373991Y-14323460D01*
X13373991Y-14323460D02*
X13364467Y-14313936D01*
X13364467Y-14313936D02*
X13354943Y-14294888D01*
X13354943Y-14294888D02*
X13345420Y-14256793D01*
X13345420Y-14256793D02*
X13345420Y-14209174D01*
X13345420Y-14209174D02*
X13354943Y-14171079D01*
X13354943Y-14171079D02*
X13364467Y-14152031D01*
X13364467Y-14152031D02*
X13373991Y-14142508D01*
X13373991Y-14142508D02*
X13393039Y-14132984D01*
X13545420Y-14332984D02*
X13545420Y-14199650D01*
X13545420Y-14218698D02*
X13554943Y-14209174D01*
X13554943Y-14209174D02*
X13573991Y-14199650D01*
X13573991Y-14199650D02*
X13602563Y-14199650D01*
X13602563Y-14199650D02*
X13621610Y-14209174D01*
X13621610Y-14209174D02*
X13631134Y-14228222D01*
X13631134Y-14228222D02*
X13631134Y-14332984D01*
X13631134Y-14228222D02*
X13640658Y-14209174D01*
X13640658Y-14209174D02*
X13659705Y-14199650D01*
X13659705Y-14199650D02*
X13688277Y-14199650D01*
X13688277Y-14199650D02*
X13707324Y-14209174D01*
X13707324Y-14209174D02*
X13716848Y-14228222D01*
X13716848Y-14228222D02*
X13716848Y-14332984D01*
X13812086Y-14332984D02*
X13812086Y-14199650D01*
X13812086Y-14218698D02*
X13821610Y-14209174D01*
X13821610Y-14209174D02*
X13840658Y-14199650D01*
X13840658Y-14199650D02*
X13869229Y-14199650D01*
X13869229Y-14199650D02*
X13888277Y-14209174D01*
X13888277Y-14209174D02*
X13897801Y-14228222D01*
X13897801Y-14228222D02*
X13897801Y-14332984D01*
X13897801Y-14228222D02*
X13907324Y-14209174D01*
X13907324Y-14209174D02*
X13926372Y-14199650D01*
X13926372Y-14199650D02*
X13954943Y-14199650D01*
X13954943Y-14199650D02*
X13973991Y-14209174D01*
X13973991Y-14209174D02*
X13983515Y-14228222D01*
X13983515Y-14228222D02*
X13983515Y-14332984D01*
X14373991Y-14123460D02*
X14202563Y-14380603D01*
X14631134Y-14132984D02*
X14650182Y-14132984D01*
X14650182Y-14132984D02*
X14669229Y-14142508D01*
X14669229Y-14142508D02*
X14678753Y-14152031D01*
X14678753Y-14152031D02*
X14688277Y-14171079D01*
X14688277Y-14171079D02*
X14697801Y-14209174D01*
X14697801Y-14209174D02*
X14697801Y-14256793D01*
X14697801Y-14256793D02*
X14688277Y-14294888D01*
X14688277Y-14294888D02*
X14678753Y-14313936D01*
X14678753Y-14313936D02*
X14669229Y-14323460D01*
X14669229Y-14323460D02*
X14650182Y-14332984D01*
X14650182Y-14332984D02*
X14631134Y-14332984D01*
X14631134Y-14332984D02*
X14612086Y-14323460D01*
X14612086Y-14323460D02*
X14602563Y-14313936D01*
X14602563Y-14313936D02*
X14593039Y-14294888D01*
X14593039Y-14294888D02*
X14583515Y-14256793D01*
X14583515Y-14256793D02*
X14583515Y-14209174D01*
X14583515Y-14209174D02*
X14593039Y-14171079D01*
X14593039Y-14171079D02*
X14602563Y-14152031D01*
X14602563Y-14152031D02*
X14612086Y-14142508D01*
X14612086Y-14142508D02*
X14631134Y-14132984D01*
X14783515Y-14313936D02*
X14793039Y-14323460D01*
X14793039Y-14323460D02*
X14783515Y-14332984D01*
X14783515Y-14332984D02*
X14773991Y-14323460D01*
X14773991Y-14323460D02*
X14783515Y-14313936D01*
X14783515Y-14313936D02*
X14783515Y-14332984D01*
X14916848Y-14132984D02*
X14935896Y-14132984D01*
X14935896Y-14132984D02*
X14954944Y-14142508D01*
X14954944Y-14142508D02*
X14964467Y-14152031D01*
X14964467Y-14152031D02*
X14973991Y-14171079D01*
X14973991Y-14171079D02*
X14983515Y-14209174D01*
X14983515Y-14209174D02*
X14983515Y-14256793D01*
X14983515Y-14256793D02*
X14973991Y-14294888D01*
X14973991Y-14294888D02*
X14964467Y-14313936D01*
X14964467Y-14313936D02*
X14954944Y-14323460D01*
X14954944Y-14323460D02*
X14935896Y-14332984D01*
X14935896Y-14332984D02*
X14916848Y-14332984D01*
X14916848Y-14332984D02*
X14897801Y-14323460D01*
X14897801Y-14323460D02*
X14888277Y-14313936D01*
X14888277Y-14313936D02*
X14878753Y-14294888D01*
X14878753Y-14294888D02*
X14869229Y-14256793D01*
X14869229Y-14256793D02*
X14869229Y-14209174D01*
X14869229Y-14209174D02*
X14878753Y-14171079D01*
X14878753Y-14171079D02*
X14888277Y-14152031D01*
X14888277Y-14152031D02*
X14897801Y-14142508D01*
X14897801Y-14142508D02*
X14916848Y-14132984D01*
X15059706Y-14152031D02*
X15069229Y-14142508D01*
X15069229Y-14142508D02*
X15088277Y-14132984D01*
X15088277Y-14132984D02*
X15135896Y-14132984D01*
X15135896Y-14132984D02*
X15154944Y-14142508D01*
X15154944Y-14142508D02*
X15164467Y-14152031D01*
X15164467Y-14152031D02*
X15173991Y-14171079D01*
X15173991Y-14171079D02*
X15173991Y-14190127D01*
X15173991Y-14190127D02*
X15164467Y-14218698D01*
X15164467Y-14218698D02*
X15050182Y-14332984D01*
X15050182Y-14332984D02*
X15173991Y-14332984D01*
X15240658Y-14132984D02*
X15373991Y-14132984D01*
X15373991Y-14132984D02*
X15288277Y-14332984D01*
X15535896Y-14132984D02*
X15497801Y-14132984D01*
X15497801Y-14132984D02*
X15478753Y-14142508D01*
X15478753Y-14142508D02*
X15469229Y-14152031D01*
X15469229Y-14152031D02*
X15450182Y-14180603D01*
X15450182Y-14180603D02*
X15440658Y-14218698D01*
X15440658Y-14218698D02*
X15440658Y-14294888D01*
X15440658Y-14294888D02*
X15450182Y-14313936D01*
X15450182Y-14313936D02*
X15459706Y-14323460D01*
X15459706Y-14323460D02*
X15478753Y-14332984D01*
X15478753Y-14332984D02*
X15516848Y-14332984D01*
X15516848Y-14332984D02*
X15535896Y-14323460D01*
X15535896Y-14323460D02*
X15545420Y-14313936D01*
X15545420Y-14313936D02*
X15554944Y-14294888D01*
X15554944Y-14294888D02*
X15554944Y-14247269D01*
X15554944Y-14247269D02*
X15545420Y-14228222D01*
X15545420Y-14228222D02*
X15535896Y-14218698D01*
X15535896Y-14218698D02*
X15516848Y-14209174D01*
X15516848Y-14209174D02*
X15478753Y-14209174D01*
X15478753Y-14209174D02*
X15459706Y-14218698D01*
X15459706Y-14218698D02*
X15450182Y-14228222D01*
X15450182Y-14228222D02*
X15440658Y-14247269D01*
X15631134Y-14132984D02*
X15631134Y-14171079D01*
X15707325Y-14132984D02*
X15707325Y-14171079D01*
X16002563Y-14409174D02*
X15993039Y-14399650D01*
X15993039Y-14399650D02*
X15973991Y-14371079D01*
X15973991Y-14371079D02*
X15964468Y-14352031D01*
X15964468Y-14352031D02*
X15954944Y-14323460D01*
X15954944Y-14323460D02*
X15945420Y-14275841D01*
X15945420Y-14275841D02*
X15945420Y-14237746D01*
X15945420Y-14237746D02*
X15954944Y-14190127D01*
X15954944Y-14190127D02*
X15964468Y-14161555D01*
X15964468Y-14161555D02*
X15973991Y-14142508D01*
X15973991Y-14142508D02*
X15993039Y-14113936D01*
X15993039Y-14113936D02*
X16002563Y-14104412D01*
X16069229Y-14152031D02*
X16078753Y-14142508D01*
X16078753Y-14142508D02*
X16097801Y-14132984D01*
X16097801Y-14132984D02*
X16145420Y-14132984D01*
X16145420Y-14132984D02*
X16164468Y-14142508D01*
X16164468Y-14142508D02*
X16173991Y-14152031D01*
X16173991Y-14152031D02*
X16183515Y-14171079D01*
X16183515Y-14171079D02*
X16183515Y-14190127D01*
X16183515Y-14190127D02*
X16173991Y-14218698D01*
X16173991Y-14218698D02*
X16059706Y-14332984D01*
X16059706Y-14332984D02*
X16183515Y-14332984D01*
X16421610Y-14332984D02*
X16421610Y-14132984D01*
X16507325Y-14332984D02*
X16507325Y-14228222D01*
X16507325Y-14228222D02*
X16497801Y-14209174D01*
X16497801Y-14209174D02*
X16478753Y-14199650D01*
X16478753Y-14199650D02*
X16450182Y-14199650D01*
X16450182Y-14199650D02*
X16431134Y-14209174D01*
X16431134Y-14209174D02*
X16421610Y-14218698D01*
X16631134Y-14332984D02*
X16612087Y-14323460D01*
X16612087Y-14323460D02*
X16602563Y-14313936D01*
X16602563Y-14313936D02*
X16593039Y-14294888D01*
X16593039Y-14294888D02*
X16593039Y-14237746D01*
X16593039Y-14237746D02*
X16602563Y-14218698D01*
X16602563Y-14218698D02*
X16612087Y-14209174D01*
X16612087Y-14209174D02*
X16631134Y-14199650D01*
X16631134Y-14199650D02*
X16659706Y-14199650D01*
X16659706Y-14199650D02*
X16678753Y-14209174D01*
X16678753Y-14209174D02*
X16688277Y-14218698D01*
X16688277Y-14218698D02*
X16697801Y-14237746D01*
X16697801Y-14237746D02*
X16697801Y-14294888D01*
X16697801Y-14294888D02*
X16688277Y-14313936D01*
X16688277Y-14313936D02*
X16678753Y-14323460D01*
X16678753Y-14323460D02*
X16659706Y-14332984D01*
X16659706Y-14332984D02*
X16631134Y-14332984D01*
X16812087Y-14332984D02*
X16793039Y-14323460D01*
X16793039Y-14323460D02*
X16783515Y-14304412D01*
X16783515Y-14304412D02*
X16783515Y-14132984D01*
X16964468Y-14323460D02*
X16945420Y-14332984D01*
X16945420Y-14332984D02*
X16907325Y-14332984D01*
X16907325Y-14332984D02*
X16888277Y-14323460D01*
X16888277Y-14323460D02*
X16878753Y-14304412D01*
X16878753Y-14304412D02*
X16878753Y-14228222D01*
X16878753Y-14228222D02*
X16888277Y-14209174D01*
X16888277Y-14209174D02*
X16907325Y-14199650D01*
X16907325Y-14199650D02*
X16945420Y-14199650D01*
X16945420Y-14199650D02*
X16964468Y-14209174D01*
X16964468Y-14209174D02*
X16973992Y-14228222D01*
X16973992Y-14228222D02*
X16973992Y-14247269D01*
X16973992Y-14247269D02*
X16878753Y-14266317D01*
X17050182Y-14323460D02*
X17069230Y-14332984D01*
X17069230Y-14332984D02*
X17107325Y-14332984D01*
X17107325Y-14332984D02*
X17126373Y-14323460D01*
X17126373Y-14323460D02*
X17135896Y-14304412D01*
X17135896Y-14304412D02*
X17135896Y-14294888D01*
X17135896Y-14294888D02*
X17126373Y-14275841D01*
X17126373Y-14275841D02*
X17107325Y-14266317D01*
X17107325Y-14266317D02*
X17078753Y-14266317D01*
X17078753Y-14266317D02*
X17059706Y-14256793D01*
X17059706Y-14256793D02*
X17050182Y-14237746D01*
X17050182Y-14237746D02*
X17050182Y-14228222D01*
X17050182Y-14228222D02*
X17059706Y-14209174D01*
X17059706Y-14209174D02*
X17078753Y-14199650D01*
X17078753Y-14199650D02*
X17107325Y-14199650D01*
X17107325Y-14199650D02*
X17126373Y-14209174D01*
X17202563Y-14409174D02*
X17212087Y-14399650D01*
X17212087Y-14399650D02*
X17231134Y-14371079D01*
X17231134Y-14371079D02*
X17240658Y-14352031D01*
X17240658Y-14352031D02*
X17250182Y-14323460D01*
X17250182Y-14323460D02*
X17259706Y-14275841D01*
X17259706Y-14275841D02*
X17259706Y-14237746D01*
X17259706Y-14237746D02*
X17250182Y-14190127D01*
X17250182Y-14190127D02*
X17240658Y-14161555D01*
X17240658Y-14161555D02*
X17231134Y-14142508D01*
X17231134Y-14142508D02*
X17212087Y-14113936D01*
X17212087Y-14113936D02*
X17202563Y-14104412D01*
D12*
X12377500Y-14455500D02*
X12377500Y-14555500D01*
X12327500Y-14505500D02*
X12427500Y-14505500D01*
D11*
X12793039Y-14596984D02*
X12678753Y-14596984D01*
X12735896Y-14596984D02*
X12735896Y-14396984D01*
X12735896Y-14396984D02*
X12716848Y-14425555D01*
X12716848Y-14425555D02*
X12697801Y-14444603D01*
X12697801Y-14444603D02*
X12678753Y-14454127D01*
X12878753Y-14577936D02*
X12888277Y-14587460D01*
X12888277Y-14587460D02*
X12878753Y-14596984D01*
X12878753Y-14596984D02*
X12869229Y-14587460D01*
X12869229Y-14587460D02*
X12878753Y-14577936D01*
X12878753Y-14577936D02*
X12878753Y-14596984D01*
X13012086Y-14396984D02*
X13031134Y-14396984D01*
X13031134Y-14396984D02*
X13050182Y-14406508D01*
X13050182Y-14406508D02*
X13059705Y-14416031D01*
X13059705Y-14416031D02*
X13069229Y-14435079D01*
X13069229Y-14435079D02*
X13078753Y-14473174D01*
X13078753Y-14473174D02*
X13078753Y-14520793D01*
X13078753Y-14520793D02*
X13069229Y-14558888D01*
X13069229Y-14558888D02*
X13059705Y-14577936D01*
X13059705Y-14577936D02*
X13050182Y-14587460D01*
X13050182Y-14587460D02*
X13031134Y-14596984D01*
X13031134Y-14596984D02*
X13012086Y-14596984D01*
X13012086Y-14596984D02*
X12993039Y-14587460D01*
X12993039Y-14587460D02*
X12983515Y-14577936D01*
X12983515Y-14577936D02*
X12973991Y-14558888D01*
X12973991Y-14558888D02*
X12964467Y-14520793D01*
X12964467Y-14520793D02*
X12964467Y-14473174D01*
X12964467Y-14473174D02*
X12973991Y-14435079D01*
X12973991Y-14435079D02*
X12983515Y-14416031D01*
X12983515Y-14416031D02*
X12993039Y-14406508D01*
X12993039Y-14406508D02*
X13012086Y-14396984D01*
X13202562Y-14396984D02*
X13221610Y-14396984D01*
X13221610Y-14396984D02*
X13240658Y-14406508D01*
X13240658Y-14406508D02*
X13250182Y-14416031D01*
X13250182Y-14416031D02*
X13259705Y-14435079D01*
X13259705Y-14435079D02*
X13269229Y-14473174D01*
X13269229Y-14473174D02*
X13269229Y-14520793D01*
X13269229Y-14520793D02*
X13259705Y-14558888D01*
X13259705Y-14558888D02*
X13250182Y-14577936D01*
X13250182Y-14577936D02*
X13240658Y-14587460D01*
X13240658Y-14587460D02*
X13221610Y-14596984D01*
X13221610Y-14596984D02*
X13202562Y-14596984D01*
X13202562Y-14596984D02*
X13183515Y-14587460D01*
X13183515Y-14587460D02*
X13173991Y-14577936D01*
X13173991Y-14577936D02*
X13164467Y-14558888D01*
X13164467Y-14558888D02*
X13154943Y-14520793D01*
X13154943Y-14520793D02*
X13154943Y-14473174D01*
X13154943Y-14473174D02*
X13164467Y-14435079D01*
X13164467Y-14435079D02*
X13173991Y-14416031D01*
X13173991Y-14416031D02*
X13183515Y-14406508D01*
X13183515Y-14406508D02*
X13202562Y-14396984D01*
X13393039Y-14396984D02*
X13412086Y-14396984D01*
X13412086Y-14396984D02*
X13431134Y-14406508D01*
X13431134Y-14406508D02*
X13440658Y-14416031D01*
X13440658Y-14416031D02*
X13450182Y-14435079D01*
X13450182Y-14435079D02*
X13459705Y-14473174D01*
X13459705Y-14473174D02*
X13459705Y-14520793D01*
X13459705Y-14520793D02*
X13450182Y-14558888D01*
X13450182Y-14558888D02*
X13440658Y-14577936D01*
X13440658Y-14577936D02*
X13431134Y-14587460D01*
X13431134Y-14587460D02*
X13412086Y-14596984D01*
X13412086Y-14596984D02*
X13393039Y-14596984D01*
X13393039Y-14596984D02*
X13373991Y-14587460D01*
X13373991Y-14587460D02*
X13364467Y-14577936D01*
X13364467Y-14577936D02*
X13354943Y-14558888D01*
X13354943Y-14558888D02*
X13345420Y-14520793D01*
X13345420Y-14520793D02*
X13345420Y-14473174D01*
X13345420Y-14473174D02*
X13354943Y-14435079D01*
X13354943Y-14435079D02*
X13364467Y-14416031D01*
X13364467Y-14416031D02*
X13373991Y-14406508D01*
X13373991Y-14406508D02*
X13393039Y-14396984D01*
X13545420Y-14596984D02*
X13545420Y-14463650D01*
X13545420Y-14482698D02*
X13554943Y-14473174D01*
X13554943Y-14473174D02*
X13573991Y-14463650D01*
X13573991Y-14463650D02*
X13602563Y-14463650D01*
X13602563Y-14463650D02*
X13621610Y-14473174D01*
X13621610Y-14473174D02*
X13631134Y-14492222D01*
X13631134Y-14492222D02*
X13631134Y-14596984D01*
X13631134Y-14492222D02*
X13640658Y-14473174D01*
X13640658Y-14473174D02*
X13659705Y-14463650D01*
X13659705Y-14463650D02*
X13688277Y-14463650D01*
X13688277Y-14463650D02*
X13707324Y-14473174D01*
X13707324Y-14473174D02*
X13716848Y-14492222D01*
X13716848Y-14492222D02*
X13716848Y-14596984D01*
X13812086Y-14596984D02*
X13812086Y-14463650D01*
X13812086Y-14482698D02*
X13821610Y-14473174D01*
X13821610Y-14473174D02*
X13840658Y-14463650D01*
X13840658Y-14463650D02*
X13869229Y-14463650D01*
X13869229Y-14463650D02*
X13888277Y-14473174D01*
X13888277Y-14473174D02*
X13897801Y-14492222D01*
X13897801Y-14492222D02*
X13897801Y-14596984D01*
X13897801Y-14492222D02*
X13907324Y-14473174D01*
X13907324Y-14473174D02*
X13926372Y-14463650D01*
X13926372Y-14463650D02*
X13954943Y-14463650D01*
X13954943Y-14463650D02*
X13973991Y-14473174D01*
X13973991Y-14473174D02*
X13983515Y-14492222D01*
X13983515Y-14492222D02*
X13983515Y-14596984D01*
X14373991Y-14387460D02*
X14202563Y-14644603D01*
X14631134Y-14396984D02*
X14650182Y-14396984D01*
X14650182Y-14396984D02*
X14669229Y-14406508D01*
X14669229Y-14406508D02*
X14678753Y-14416031D01*
X14678753Y-14416031D02*
X14688277Y-14435079D01*
X14688277Y-14435079D02*
X14697801Y-14473174D01*
X14697801Y-14473174D02*
X14697801Y-14520793D01*
X14697801Y-14520793D02*
X14688277Y-14558888D01*
X14688277Y-14558888D02*
X14678753Y-14577936D01*
X14678753Y-14577936D02*
X14669229Y-14587460D01*
X14669229Y-14587460D02*
X14650182Y-14596984D01*
X14650182Y-14596984D02*
X14631134Y-14596984D01*
X14631134Y-14596984D02*
X14612086Y-14587460D01*
X14612086Y-14587460D02*
X14602563Y-14577936D01*
X14602563Y-14577936D02*
X14593039Y-14558888D01*
X14593039Y-14558888D02*
X14583515Y-14520793D01*
X14583515Y-14520793D02*
X14583515Y-14473174D01*
X14583515Y-14473174D02*
X14593039Y-14435079D01*
X14593039Y-14435079D02*
X14602563Y-14416031D01*
X14602563Y-14416031D02*
X14612086Y-14406508D01*
X14612086Y-14406508D02*
X14631134Y-14396984D01*
X14783515Y-14577936D02*
X14793039Y-14587460D01*
X14793039Y-14587460D02*
X14783515Y-14596984D01*
X14783515Y-14596984D02*
X14773991Y-14587460D01*
X14773991Y-14587460D02*
X14783515Y-14577936D01*
X14783515Y-14577936D02*
X14783515Y-14596984D01*
X14916848Y-14396984D02*
X14935896Y-14396984D01*
X14935896Y-14396984D02*
X14954944Y-14406508D01*
X14954944Y-14406508D02*
X14964467Y-14416031D01*
X14964467Y-14416031D02*
X14973991Y-14435079D01*
X14973991Y-14435079D02*
X14983515Y-14473174D01*
X14983515Y-14473174D02*
X14983515Y-14520793D01*
X14983515Y-14520793D02*
X14973991Y-14558888D01*
X14973991Y-14558888D02*
X14964467Y-14577936D01*
X14964467Y-14577936D02*
X14954944Y-14587460D01*
X14954944Y-14587460D02*
X14935896Y-14596984D01*
X14935896Y-14596984D02*
X14916848Y-14596984D01*
X14916848Y-14596984D02*
X14897801Y-14587460D01*
X14897801Y-14587460D02*
X14888277Y-14577936D01*
X14888277Y-14577936D02*
X14878753Y-14558888D01*
X14878753Y-14558888D02*
X14869229Y-14520793D01*
X14869229Y-14520793D02*
X14869229Y-14473174D01*
X14869229Y-14473174D02*
X14878753Y-14435079D01*
X14878753Y-14435079D02*
X14888277Y-14416031D01*
X14888277Y-14416031D02*
X14897801Y-14406508D01*
X14897801Y-14406508D02*
X14916848Y-14396984D01*
X15050182Y-14396984D02*
X15173991Y-14396984D01*
X15173991Y-14396984D02*
X15107325Y-14473174D01*
X15107325Y-14473174D02*
X15135896Y-14473174D01*
X15135896Y-14473174D02*
X15154944Y-14482698D01*
X15154944Y-14482698D02*
X15164467Y-14492222D01*
X15164467Y-14492222D02*
X15173991Y-14511269D01*
X15173991Y-14511269D02*
X15173991Y-14558888D01*
X15173991Y-14558888D02*
X15164467Y-14577936D01*
X15164467Y-14577936D02*
X15154944Y-14587460D01*
X15154944Y-14587460D02*
X15135896Y-14596984D01*
X15135896Y-14596984D02*
X15078753Y-14596984D01*
X15078753Y-14596984D02*
X15059706Y-14587460D01*
X15059706Y-14587460D02*
X15050182Y-14577936D01*
X15269229Y-14596984D02*
X15307325Y-14596984D01*
X15307325Y-14596984D02*
X15326372Y-14587460D01*
X15326372Y-14587460D02*
X15335896Y-14577936D01*
X15335896Y-14577936D02*
X15354944Y-14549365D01*
X15354944Y-14549365D02*
X15364467Y-14511269D01*
X15364467Y-14511269D02*
X15364467Y-14435079D01*
X15364467Y-14435079D02*
X15354944Y-14416031D01*
X15354944Y-14416031D02*
X15345420Y-14406508D01*
X15345420Y-14406508D02*
X15326372Y-14396984D01*
X15326372Y-14396984D02*
X15288277Y-14396984D01*
X15288277Y-14396984D02*
X15269229Y-14406508D01*
X15269229Y-14406508D02*
X15259706Y-14416031D01*
X15259706Y-14416031D02*
X15250182Y-14435079D01*
X15250182Y-14435079D02*
X15250182Y-14482698D01*
X15250182Y-14482698D02*
X15259706Y-14501746D01*
X15259706Y-14501746D02*
X15269229Y-14511269D01*
X15269229Y-14511269D02*
X15288277Y-14520793D01*
X15288277Y-14520793D02*
X15326372Y-14520793D01*
X15326372Y-14520793D02*
X15345420Y-14511269D01*
X15345420Y-14511269D02*
X15354944Y-14501746D01*
X15354944Y-14501746D02*
X15364467Y-14482698D01*
X15535896Y-14463650D02*
X15535896Y-14596984D01*
X15488277Y-14387460D02*
X15440658Y-14530317D01*
X15440658Y-14530317D02*
X15564467Y-14530317D01*
X15631134Y-14396984D02*
X15631134Y-14435079D01*
X15707325Y-14396984D02*
X15707325Y-14435079D01*
X16002563Y-14673174D02*
X15993039Y-14663650D01*
X15993039Y-14663650D02*
X15973991Y-14635079D01*
X15973991Y-14635079D02*
X15964468Y-14616031D01*
X15964468Y-14616031D02*
X15954944Y-14587460D01*
X15954944Y-14587460D02*
X15945420Y-14539841D01*
X15945420Y-14539841D02*
X15945420Y-14501746D01*
X15945420Y-14501746D02*
X15954944Y-14454127D01*
X15954944Y-14454127D02*
X15964468Y-14425555D01*
X15964468Y-14425555D02*
X15973991Y-14406508D01*
X15973991Y-14406508D02*
X15993039Y-14377936D01*
X15993039Y-14377936D02*
X16002563Y-14368412D01*
X16183515Y-14596984D02*
X16069229Y-14596984D01*
X16126372Y-14596984D02*
X16126372Y-14396984D01*
X16126372Y-14396984D02*
X16107325Y-14425555D01*
X16107325Y-14425555D02*
X16088277Y-14444603D01*
X16088277Y-14444603D02*
X16069229Y-14454127D01*
X16307325Y-14396984D02*
X16326372Y-14396984D01*
X16326372Y-14396984D02*
X16345420Y-14406508D01*
X16345420Y-14406508D02*
X16354944Y-14416031D01*
X16354944Y-14416031D02*
X16364468Y-14435079D01*
X16364468Y-14435079D02*
X16373991Y-14473174D01*
X16373991Y-14473174D02*
X16373991Y-14520793D01*
X16373991Y-14520793D02*
X16364468Y-14558888D01*
X16364468Y-14558888D02*
X16354944Y-14577936D01*
X16354944Y-14577936D02*
X16345420Y-14587460D01*
X16345420Y-14587460D02*
X16326372Y-14596984D01*
X16326372Y-14596984D02*
X16307325Y-14596984D01*
X16307325Y-14596984D02*
X16288277Y-14587460D01*
X16288277Y-14587460D02*
X16278753Y-14577936D01*
X16278753Y-14577936D02*
X16269229Y-14558888D01*
X16269229Y-14558888D02*
X16259706Y-14520793D01*
X16259706Y-14520793D02*
X16259706Y-14473174D01*
X16259706Y-14473174D02*
X16269229Y-14435079D01*
X16269229Y-14435079D02*
X16278753Y-14416031D01*
X16278753Y-14416031D02*
X16288277Y-14406508D01*
X16288277Y-14406508D02*
X16307325Y-14396984D01*
X16612087Y-14596984D02*
X16612087Y-14396984D01*
X16697801Y-14596984D02*
X16697801Y-14492222D01*
X16697801Y-14492222D02*
X16688277Y-14473174D01*
X16688277Y-14473174D02*
X16669230Y-14463650D01*
X16669230Y-14463650D02*
X16640658Y-14463650D01*
X16640658Y-14463650D02*
X16621610Y-14473174D01*
X16621610Y-14473174D02*
X16612087Y-14482698D01*
X16821611Y-14596984D02*
X16802563Y-14587460D01*
X16802563Y-14587460D02*
X16793039Y-14577936D01*
X16793039Y-14577936D02*
X16783515Y-14558888D01*
X16783515Y-14558888D02*
X16783515Y-14501746D01*
X16783515Y-14501746D02*
X16793039Y-14482698D01*
X16793039Y-14482698D02*
X16802563Y-14473174D01*
X16802563Y-14473174D02*
X16821611Y-14463650D01*
X16821611Y-14463650D02*
X16850182Y-14463650D01*
X16850182Y-14463650D02*
X16869230Y-14473174D01*
X16869230Y-14473174D02*
X16878753Y-14482698D01*
X16878753Y-14482698D02*
X16888277Y-14501746D01*
X16888277Y-14501746D02*
X16888277Y-14558888D01*
X16888277Y-14558888D02*
X16878753Y-14577936D01*
X16878753Y-14577936D02*
X16869230Y-14587460D01*
X16869230Y-14587460D02*
X16850182Y-14596984D01*
X16850182Y-14596984D02*
X16821611Y-14596984D01*
X17002563Y-14596984D02*
X16983515Y-14587460D01*
X16983515Y-14587460D02*
X16973992Y-14568412D01*
X16973992Y-14568412D02*
X16973992Y-14396984D01*
X17154944Y-14587460D02*
X17135896Y-14596984D01*
X17135896Y-14596984D02*
X17097801Y-14596984D01*
X17097801Y-14596984D02*
X17078753Y-14587460D01*
X17078753Y-14587460D02*
X17069230Y-14568412D01*
X17069230Y-14568412D02*
X17069230Y-14492222D01*
X17069230Y-14492222D02*
X17078753Y-14473174D01*
X17078753Y-14473174D02*
X17097801Y-14463650D01*
X17097801Y-14463650D02*
X17135896Y-14463650D01*
X17135896Y-14463650D02*
X17154944Y-14473174D01*
X17154944Y-14473174D02*
X17164468Y-14492222D01*
X17164468Y-14492222D02*
X17164468Y-14511269D01*
X17164468Y-14511269D02*
X17069230Y-14530317D01*
X17240658Y-14587460D02*
X17259706Y-14596984D01*
X17259706Y-14596984D02*
X17297801Y-14596984D01*
X17297801Y-14596984D02*
X17316849Y-14587460D01*
X17316849Y-14587460D02*
X17326373Y-14568412D01*
X17326373Y-14568412D02*
X17326373Y-14558888D01*
X17326373Y-14558888D02*
X17316849Y-14539841D01*
X17316849Y-14539841D02*
X17297801Y-14530317D01*
X17297801Y-14530317D02*
X17269230Y-14530317D01*
X17269230Y-14530317D02*
X17250182Y-14520793D01*
X17250182Y-14520793D02*
X17240658Y-14501746D01*
X17240658Y-14501746D02*
X17240658Y-14492222D01*
X17240658Y-14492222D02*
X17250182Y-14473174D01*
X17250182Y-14473174D02*
X17269230Y-14463650D01*
X17269230Y-14463650D02*
X17297801Y-14463650D01*
X17297801Y-14463650D02*
X17316849Y-14473174D01*
X17393039Y-14673174D02*
X17402563Y-14663650D01*
X17402563Y-14663650D02*
X17421611Y-14635079D01*
X17421611Y-14635079D02*
X17431134Y-14616031D01*
X17431134Y-14616031D02*
X17440658Y-14587460D01*
X17440658Y-14587460D02*
X17450182Y-14539841D01*
X17450182Y-14539841D02*
X17450182Y-14501746D01*
X17450182Y-14501746D02*
X17440658Y-14454127D01*
X17440658Y-14454127D02*
X17431134Y-14425555D01*
X17431134Y-14425555D02*
X17421611Y-14406508D01*
X17421611Y-14406508D02*
X17402563Y-14377936D01*
X17402563Y-14377936D02*
X17393039Y-14368412D01*
M02*
