%TF.GenerationSoftware,KiCad,Pcbnew,8.0.2*%
%TF.CreationDate,2024-11-04T20:05:35-05:00*%
%TF.ProjectId,proto,70726f74-6f2e-46b6-9963-61645f706362,rev?*%
%TF.SameCoordinates,Original*%
%TF.FileFunction,Legend,Top*%
%TF.FilePolarity,Positive*%
%FSLAX46Y46*%
G04 Gerber Fmt 4.6, Leading zero omitted, Abs format (unit mm)*
G04 Created by KiCad (PCBNEW 8.0.2) date 2024-11-04 20:05:35*
%MOMM*%
%LPD*%
G01*
G04 APERTURE LIST*
%ADD10C,0.100000*%
%ADD11C,0.150000*%
%ADD12C,0.300000*%
%ADD13C,0.120000*%
%ADD14C,0.127000*%
%ADD15C,0.200000*%
G04 APERTURE END LIST*
D10*
X141986000Y-100076000D02*
X141986000Y-91440000D01*
X141986000Y-102870000D02*
X141986000Y-132842000D01*
D11*
X129022256Y-104619445D02*
X129069875Y-104476588D01*
X129069875Y-104476588D02*
X129069875Y-104238493D01*
X129069875Y-104238493D02*
X129022256Y-104143255D01*
X129022256Y-104143255D02*
X128974636Y-104095636D01*
X128974636Y-104095636D02*
X128879398Y-104048017D01*
X128879398Y-104048017D02*
X128784160Y-104048017D01*
X128784160Y-104048017D02*
X128688922Y-104095636D01*
X128688922Y-104095636D02*
X128641303Y-104143255D01*
X128641303Y-104143255D02*
X128593684Y-104238493D01*
X128593684Y-104238493D02*
X128546065Y-104428969D01*
X128546065Y-104428969D02*
X128498446Y-104524207D01*
X128498446Y-104524207D02*
X128450827Y-104571826D01*
X128450827Y-104571826D02*
X128355589Y-104619445D01*
X128355589Y-104619445D02*
X128260351Y-104619445D01*
X128260351Y-104619445D02*
X128165113Y-104571826D01*
X128165113Y-104571826D02*
X128117494Y-104524207D01*
X128117494Y-104524207D02*
X128069875Y-104428969D01*
X128069875Y-104428969D02*
X128069875Y-104190874D01*
X128069875Y-104190874D02*
X128117494Y-104048017D01*
X128069875Y-103714683D02*
X129069875Y-103476588D01*
X129069875Y-103476588D02*
X128355589Y-103286112D01*
X128355589Y-103286112D02*
X129069875Y-103095636D01*
X129069875Y-103095636D02*
X128069875Y-102857541D01*
X130679819Y-105333731D02*
X129679819Y-105333731D01*
X129679819Y-105333731D02*
X129679819Y-104952779D01*
X129679819Y-104952779D02*
X129727438Y-104857541D01*
X129727438Y-104857541D02*
X129775057Y-104809922D01*
X129775057Y-104809922D02*
X129870295Y-104762303D01*
X129870295Y-104762303D02*
X130013152Y-104762303D01*
X130013152Y-104762303D02*
X130108390Y-104809922D01*
X130108390Y-104809922D02*
X130156009Y-104857541D01*
X130156009Y-104857541D02*
X130203628Y-104952779D01*
X130203628Y-104952779D02*
X130203628Y-105333731D01*
X130394104Y-104381350D02*
X130394104Y-103905160D01*
X130679819Y-104476588D02*
X129679819Y-104143255D01*
X129679819Y-104143255D02*
X130679819Y-103809922D01*
X130679819Y-103476588D02*
X129679819Y-103476588D01*
X129679819Y-103476588D02*
X129679819Y-103238493D01*
X129679819Y-103238493D02*
X129727438Y-103095636D01*
X129727438Y-103095636D02*
X129822676Y-103000398D01*
X129822676Y-103000398D02*
X129917914Y-102952779D01*
X129917914Y-102952779D02*
X130108390Y-102905160D01*
X130108390Y-102905160D02*
X130251247Y-102905160D01*
X130251247Y-102905160D02*
X130441723Y-102952779D01*
X130441723Y-102952779D02*
X130536961Y-103000398D01*
X130536961Y-103000398D02*
X130632200Y-103095636D01*
X130632200Y-103095636D02*
X130679819Y-103238493D01*
X130679819Y-103238493D02*
X130679819Y-103476588D01*
X139991875Y-101269731D02*
X138991875Y-101269731D01*
X138991875Y-101269731D02*
X138991875Y-100888779D01*
X138991875Y-100888779D02*
X139039494Y-100793541D01*
X139039494Y-100793541D02*
X139087113Y-100745922D01*
X139087113Y-100745922D02*
X139182351Y-100698303D01*
X139182351Y-100698303D02*
X139325208Y-100698303D01*
X139325208Y-100698303D02*
X139420446Y-100745922D01*
X139420446Y-100745922D02*
X139468065Y-100793541D01*
X139468065Y-100793541D02*
X139515684Y-100888779D01*
X139515684Y-100888779D02*
X139515684Y-101269731D01*
X139706160Y-100317350D02*
X139706160Y-99841160D01*
X139991875Y-100412588D02*
X138991875Y-100079255D01*
X138991875Y-100079255D02*
X139991875Y-99745922D01*
X139991875Y-99412588D02*
X138991875Y-99412588D01*
X138991875Y-99412588D02*
X138991875Y-99174493D01*
X138991875Y-99174493D02*
X139039494Y-99031636D01*
X139039494Y-99031636D02*
X139134732Y-98936398D01*
X139134732Y-98936398D02*
X139229970Y-98888779D01*
X139229970Y-98888779D02*
X139420446Y-98841160D01*
X139420446Y-98841160D02*
X139563303Y-98841160D01*
X139563303Y-98841160D02*
X139753779Y-98888779D01*
X139753779Y-98888779D02*
X139849017Y-98936398D01*
X139849017Y-98936398D02*
X139944256Y-99031636D01*
X139944256Y-99031636D02*
X139991875Y-99174493D01*
X139991875Y-99174493D02*
X139991875Y-99412588D01*
X141506580Y-105193541D02*
X141554200Y-105241160D01*
X141554200Y-105241160D02*
X141601819Y-105384017D01*
X141601819Y-105384017D02*
X141601819Y-105479255D01*
X141601819Y-105479255D02*
X141554200Y-105622112D01*
X141554200Y-105622112D02*
X141458961Y-105717350D01*
X141458961Y-105717350D02*
X141363723Y-105764969D01*
X141363723Y-105764969D02*
X141173247Y-105812588D01*
X141173247Y-105812588D02*
X141030390Y-105812588D01*
X141030390Y-105812588D02*
X140839914Y-105764969D01*
X140839914Y-105764969D02*
X140744676Y-105717350D01*
X140744676Y-105717350D02*
X140649438Y-105622112D01*
X140649438Y-105622112D02*
X140601819Y-105479255D01*
X140601819Y-105479255D02*
X140601819Y-105384017D01*
X140601819Y-105384017D02*
X140649438Y-105241160D01*
X140649438Y-105241160D02*
X140697057Y-105193541D01*
X140601819Y-104574493D02*
X140601819Y-104384017D01*
X140601819Y-104384017D02*
X140649438Y-104288779D01*
X140649438Y-104288779D02*
X140744676Y-104193541D01*
X140744676Y-104193541D02*
X140935152Y-104145922D01*
X140935152Y-104145922D02*
X141268485Y-104145922D01*
X141268485Y-104145922D02*
X141458961Y-104193541D01*
X141458961Y-104193541D02*
X141554200Y-104288779D01*
X141554200Y-104288779D02*
X141601819Y-104384017D01*
X141601819Y-104384017D02*
X141601819Y-104574493D01*
X141601819Y-104574493D02*
X141554200Y-104669731D01*
X141554200Y-104669731D02*
X141458961Y-104764969D01*
X141458961Y-104764969D02*
X141268485Y-104812588D01*
X141268485Y-104812588D02*
X140935152Y-104812588D01*
X140935152Y-104812588D02*
X140744676Y-104764969D01*
X140744676Y-104764969D02*
X140649438Y-104669731D01*
X140649438Y-104669731D02*
X140601819Y-104574493D01*
X141601819Y-103717350D02*
X140601819Y-103717350D01*
X140601819Y-103717350D02*
X141316104Y-103384017D01*
X141316104Y-103384017D02*
X140601819Y-103050684D01*
X140601819Y-103050684D02*
X141601819Y-103050684D01*
X141935152Y-101574493D02*
X140506580Y-101574493D01*
X141601819Y-99526874D02*
X141125628Y-99860207D01*
X141601819Y-100098302D02*
X140601819Y-100098302D01*
X140601819Y-100098302D02*
X140601819Y-99717350D01*
X140601819Y-99717350D02*
X140649438Y-99622112D01*
X140649438Y-99622112D02*
X140697057Y-99574493D01*
X140697057Y-99574493D02*
X140792295Y-99526874D01*
X140792295Y-99526874D02*
X140935152Y-99526874D01*
X140935152Y-99526874D02*
X141030390Y-99574493D01*
X141030390Y-99574493D02*
X141078009Y-99622112D01*
X141078009Y-99622112D02*
X141125628Y-99717350D01*
X141125628Y-99717350D02*
X141125628Y-100098302D01*
X140912295Y-99260207D02*
X141712295Y-98993540D01*
X141712295Y-98993540D02*
X140912295Y-98726874D01*
D12*
G36*
X128024984Y-86271765D02*
G01*
X128108343Y-86282173D01*
X128183640Y-86300385D01*
X128261295Y-86331498D01*
X128327976Y-86373234D01*
X128336606Y-86380064D01*
X128389853Y-86433065D01*
X128430022Y-86494938D01*
X128457112Y-86565681D01*
X128471125Y-86645294D01*
X128473260Y-86694771D01*
X128467741Y-86769349D01*
X128448341Y-86846297D01*
X128414972Y-86915884D01*
X128384966Y-86958187D01*
X128329740Y-87013477D01*
X128262980Y-87057350D01*
X128193954Y-87086762D01*
X128136205Y-87102900D01*
X128543602Y-87722789D01*
X128260769Y-87722789D01*
X127908692Y-87131843D01*
X127699498Y-87131843D01*
X127699498Y-87722789D01*
X127441578Y-87722789D01*
X127441578Y-86949027D01*
X127699498Y-86949027D01*
X127933605Y-86949027D01*
X128010456Y-86942480D01*
X128082099Y-86920154D01*
X128140235Y-86881983D01*
X128186002Y-86824332D01*
X128210645Y-86751946D01*
X128215339Y-86695503D01*
X128206421Y-86620563D01*
X128172887Y-86549187D01*
X128139868Y-86514519D01*
X128074352Y-86476343D01*
X127998636Y-86456827D01*
X127925545Y-86451871D01*
X127699498Y-86451871D01*
X127699498Y-86949027D01*
X127441578Y-86949027D01*
X127441578Y-86269055D01*
X127949359Y-86269055D01*
X128024984Y-86271765D01*
G37*
G36*
X129068968Y-86958187D02*
G01*
X128603685Y-86269055D01*
X128867834Y-86269055D01*
X129218811Y-86813839D01*
X129566491Y-86269055D01*
X129831739Y-86269055D01*
X129381843Y-86958187D01*
X129874237Y-87722789D01*
X129608989Y-87722789D01*
X129218811Y-87114990D01*
X128825336Y-87722789D01*
X128561187Y-87722789D01*
X129068968Y-86958187D01*
G37*
G36*
X130620326Y-86271912D02*
G01*
X130701991Y-86280481D01*
X130778321Y-86294764D01*
X130849315Y-86314759D01*
X130930556Y-86347788D01*
X131003460Y-86389742D01*
X131068028Y-86440624D01*
X131079942Y-86451871D01*
X131134086Y-86512974D01*
X131179053Y-86582252D01*
X131214843Y-86659706D01*
X131241457Y-86745335D01*
X131256140Y-86819724D01*
X131264950Y-86899345D01*
X131267886Y-86984198D01*
X131264924Y-87067154D01*
X131256037Y-87145937D01*
X131241225Y-87220546D01*
X131220488Y-87290983D01*
X131188807Y-87367884D01*
X131183623Y-87378406D01*
X131143446Y-87447744D01*
X131096328Y-87509579D01*
X131042267Y-87563910D01*
X130981264Y-87610739D01*
X130943288Y-87634129D01*
X130872570Y-87668675D01*
X130796978Y-87694736D01*
X130716513Y-87712312D01*
X130643664Y-87720624D01*
X130580221Y-87722789D01*
X130048626Y-87722789D01*
X130048626Y-87521288D01*
X130306547Y-87521288D01*
X130563734Y-87521288D01*
X130639585Y-87516342D01*
X130719774Y-87498070D01*
X130791023Y-87466334D01*
X130853331Y-87421134D01*
X130892363Y-87380605D01*
X130938187Y-87313551D01*
X130972756Y-87235487D01*
X130993428Y-87159813D01*
X131005832Y-87076050D01*
X131009851Y-87000069D01*
X131009966Y-86984198D01*
X131005770Y-86892405D01*
X130993183Y-86809640D01*
X130972205Y-86735904D01*
X130931181Y-86651635D01*
X130875239Y-86583417D01*
X130804379Y-86531250D01*
X130718601Y-86495134D01*
X130644478Y-86478581D01*
X130561963Y-86471057D01*
X130532593Y-86470556D01*
X130306547Y-86470556D01*
X130306547Y-87521288D01*
X130048626Y-87521288D01*
X130048626Y-86269055D01*
X130533326Y-86269055D01*
X130620326Y-86271912D01*
G37*
G36*
X128402918Y-88809055D02*
G01*
X128402918Y-89010556D01*
X127957419Y-89010556D01*
X127957419Y-90262789D01*
X127699498Y-90262789D01*
X127699498Y-89010556D01*
X127277447Y-89010556D01*
X127277447Y-88809055D01*
X128402918Y-88809055D01*
G37*
G36*
X128919491Y-89498187D02*
G01*
X128454209Y-88809055D01*
X128718357Y-88809055D01*
X129069334Y-89353839D01*
X129417014Y-88809055D01*
X129682262Y-88809055D01*
X129232367Y-89498187D01*
X129724760Y-90262789D01*
X129459512Y-90262789D01*
X129069334Y-89654990D01*
X128675859Y-90262789D01*
X128411711Y-90262789D01*
X128919491Y-89498187D01*
G37*
G36*
X130470850Y-88811912D02*
G01*
X130552514Y-88820481D01*
X130628844Y-88834764D01*
X130699839Y-88854759D01*
X130781079Y-88887788D01*
X130853984Y-88929742D01*
X130918552Y-88980624D01*
X130930465Y-88991871D01*
X130984609Y-89052974D01*
X131029577Y-89122252D01*
X131065367Y-89199706D01*
X131091980Y-89285335D01*
X131106663Y-89359724D01*
X131115473Y-89439345D01*
X131118410Y-89524198D01*
X131115447Y-89607154D01*
X131106560Y-89685937D01*
X131091748Y-89760546D01*
X131071011Y-89830983D01*
X131039330Y-89907884D01*
X131034146Y-89918406D01*
X130993970Y-89987744D01*
X130946851Y-90049579D01*
X130892790Y-90103910D01*
X130831787Y-90150739D01*
X130793811Y-90174129D01*
X130723093Y-90208675D01*
X130647502Y-90234736D01*
X130567036Y-90252312D01*
X130494187Y-90260624D01*
X130430744Y-90262789D01*
X129899150Y-90262789D01*
X129899150Y-90061288D01*
X130157070Y-90061288D01*
X130414258Y-90061288D01*
X130490108Y-90056342D01*
X130570298Y-90038070D01*
X130641547Y-90006334D01*
X130703855Y-89961134D01*
X130742886Y-89920605D01*
X130788710Y-89853551D01*
X130823279Y-89775487D01*
X130843951Y-89699813D01*
X130856355Y-89616050D01*
X130860375Y-89540069D01*
X130860489Y-89524198D01*
X130856294Y-89432405D01*
X130843707Y-89349640D01*
X130822728Y-89275904D01*
X130781704Y-89191635D01*
X130725762Y-89123417D01*
X130654902Y-89071250D01*
X130569124Y-89035134D01*
X130495001Y-89018581D01*
X130412486Y-89011057D01*
X130383117Y-89010556D01*
X130157070Y-89010556D01*
X130157070Y-90061288D01*
X129899150Y-90061288D01*
X129899150Y-88809055D01*
X130383849Y-88809055D01*
X130470850Y-88811912D01*
G37*
G36*
X128309129Y-92397224D02*
G01*
X128304698Y-92472056D01*
X128288329Y-92550571D01*
X128259898Y-92619618D01*
X128212637Y-92686938D01*
X128183099Y-92715960D01*
X128122702Y-92758929D01*
X128051786Y-92791344D01*
X127970352Y-92813205D01*
X127892179Y-92823544D01*
X127821131Y-92826236D01*
X127742095Y-92822707D01*
X127669577Y-92812120D01*
X127593209Y-92790847D01*
X127525712Y-92759967D01*
X127474917Y-92725852D01*
X127418108Y-92669432D01*
X127374075Y-92600556D01*
X127346028Y-92530071D01*
X127327763Y-92450049D01*
X127324341Y-92425434D01*
X127561745Y-92404184D01*
X127578838Y-92479188D01*
X127613884Y-92548853D01*
X127643445Y-92581505D01*
X127710253Y-92620574D01*
X127783034Y-92636648D01*
X127824795Y-92638658D01*
X127901412Y-92630995D01*
X127974546Y-92602181D01*
X128010175Y-92573811D01*
X128051924Y-92511993D01*
X128071570Y-92438723D01*
X128074655Y-92388797D01*
X128063373Y-92312771D01*
X128025685Y-92246106D01*
X127994422Y-92216972D01*
X127923633Y-92179689D01*
X127848428Y-92161764D01*
X127768141Y-92155849D01*
X127758483Y-92155789D01*
X127652604Y-92155789D01*
X127652604Y-91958685D01*
X127756285Y-91958685D01*
X127831205Y-91954107D01*
X127908526Y-91936074D01*
X127975004Y-91900800D01*
X128024343Y-91845247D01*
X128048529Y-91773248D01*
X128051208Y-91734471D01*
X128043016Y-91658874D01*
X128012753Y-91590733D01*
X127992956Y-91568141D01*
X127927580Y-91528696D01*
X127852948Y-91514045D01*
X127826627Y-91513187D01*
X127752528Y-91520605D01*
X127682977Y-91548014D01*
X127625773Y-91604068D01*
X127595216Y-91674753D01*
X127585926Y-91724212D01*
X127347789Y-91706993D01*
X127362259Y-91631419D01*
X127391076Y-91554666D01*
X127432991Y-91488171D01*
X127488003Y-91431934D01*
X127495800Y-91425625D01*
X127563944Y-91381868D01*
X127641613Y-91350612D01*
X127717387Y-91333520D01*
X127800455Y-91325999D01*
X127825528Y-91325608D01*
X127905040Y-91329124D01*
X127988689Y-91342115D01*
X128062520Y-91364677D01*
X128134877Y-91402184D01*
X128166247Y-91425625D01*
X128218499Y-91480672D01*
X128255823Y-91546159D01*
X128278217Y-91622088D01*
X128285565Y-91697091D01*
X128285681Y-91708459D01*
X128278347Y-91785810D01*
X128253336Y-91861806D01*
X128210577Y-91928277D01*
X128156030Y-91978531D01*
X128085812Y-92017550D01*
X128009218Y-92043062D01*
X127980866Y-92049544D01*
X127980866Y-92053574D01*
X128053475Y-92067175D01*
X128125252Y-92093534D01*
X128192700Y-92136553D01*
X128221568Y-92163483D01*
X128267742Y-92225665D01*
X128296815Y-92297721D01*
X128308359Y-92371015D01*
X128309129Y-92397224D01*
G37*
G36*
X128953930Y-92802789D02*
G01*
X128419038Y-91349055D01*
X128680622Y-91349055D01*
X129007785Y-92322485D01*
X129033059Y-92400882D01*
X129056536Y-92479454D01*
X129078216Y-92558199D01*
X129089484Y-92602021D01*
X129110253Y-92524833D01*
X129130426Y-92453369D01*
X129152409Y-92379814D01*
X129168986Y-92327614D01*
X129493951Y-91349055D01*
X129755535Y-91349055D01*
X129221742Y-92802789D01*
X128953930Y-92802789D01*
G37*
G36*
X130820922Y-92397224D02*
G01*
X130816491Y-92472056D01*
X130800122Y-92550571D01*
X130771692Y-92619618D01*
X130724431Y-92686938D01*
X130694893Y-92715960D01*
X130634496Y-92758929D01*
X130563580Y-92791344D01*
X130482145Y-92813205D01*
X130403972Y-92823544D01*
X130332925Y-92826236D01*
X130253889Y-92822707D01*
X130181370Y-92812120D01*
X130105002Y-92790847D01*
X130037505Y-92759967D01*
X129986711Y-92725852D01*
X129929901Y-92669432D01*
X129885869Y-92600556D01*
X129857822Y-92530071D01*
X129839557Y-92450049D01*
X129836135Y-92425434D01*
X130073539Y-92404184D01*
X130090631Y-92479188D01*
X130125677Y-92548853D01*
X130155238Y-92581505D01*
X130222047Y-92620574D01*
X130294827Y-92636648D01*
X130336588Y-92638658D01*
X130413206Y-92630995D01*
X130486340Y-92602181D01*
X130521969Y-92573811D01*
X130563717Y-92511993D01*
X130583363Y-92438723D01*
X130586449Y-92388797D01*
X130575166Y-92312771D01*
X130537478Y-92246106D01*
X130506215Y-92216972D01*
X130435427Y-92179689D01*
X130360222Y-92161764D01*
X130279934Y-92155849D01*
X130270277Y-92155789D01*
X130164397Y-92155789D01*
X130164397Y-91958685D01*
X130268078Y-91958685D01*
X130342998Y-91954107D01*
X130420320Y-91936074D01*
X130486798Y-91900800D01*
X130536137Y-91845247D01*
X130560323Y-91773248D01*
X130563002Y-91734471D01*
X130554810Y-91658874D01*
X130524546Y-91590733D01*
X130504750Y-91568141D01*
X130439373Y-91528696D01*
X130364741Y-91514045D01*
X130338420Y-91513187D01*
X130264322Y-91520605D01*
X130194771Y-91548014D01*
X130137566Y-91604068D01*
X130107010Y-91674753D01*
X130097719Y-91724212D01*
X129859582Y-91706993D01*
X129874053Y-91631419D01*
X129902870Y-91554666D01*
X129944784Y-91488171D01*
X129999796Y-91431934D01*
X130007593Y-91425625D01*
X130075737Y-91381868D01*
X130153406Y-91350612D01*
X130229181Y-91333520D01*
X130312248Y-91325999D01*
X130337321Y-91325608D01*
X130416834Y-91329124D01*
X130500482Y-91342115D01*
X130574313Y-91364677D01*
X130646670Y-91402184D01*
X130678040Y-91425625D01*
X130730293Y-91480672D01*
X130767616Y-91546159D01*
X130790010Y-91622088D01*
X130797358Y-91697091D01*
X130797475Y-91708459D01*
X130790140Y-91785810D01*
X130765130Y-91861806D01*
X130722370Y-91928277D01*
X130667823Y-91978531D01*
X130597606Y-92017550D01*
X130521012Y-92043062D01*
X130492660Y-92049544D01*
X130492660Y-92053574D01*
X130565268Y-92067175D01*
X130637045Y-92093534D01*
X130704494Y-92136553D01*
X130733361Y-92163483D01*
X130779536Y-92225665D01*
X130808609Y-92297721D01*
X130820152Y-92371015D01*
X130820922Y-92397224D01*
G37*
G36*
X127983064Y-95366236D02*
G01*
X127895845Y-95361335D01*
X127814852Y-95346630D01*
X127740083Y-95322122D01*
X127671540Y-95287811D01*
X127609223Y-95243697D01*
X127553130Y-95189780D01*
X127532436Y-95165468D01*
X127485997Y-95098963D01*
X127447428Y-95024926D01*
X127416731Y-94943358D01*
X127393905Y-94854259D01*
X127381311Y-94777557D01*
X127373755Y-94696036D01*
X127371236Y-94609694D01*
X127373715Y-94523947D01*
X127381151Y-94443113D01*
X127393544Y-94367189D01*
X127416007Y-94279192D01*
X127446216Y-94198869D01*
X127484171Y-94126221D01*
X127529872Y-94061247D01*
X127582807Y-94004886D01*
X127642235Y-93958078D01*
X127708158Y-93920822D01*
X127780574Y-93893120D01*
X127859483Y-93874970D01*
X127944887Y-93866372D01*
X127980866Y-93865608D01*
X128054093Y-93868712D01*
X128133274Y-93880180D01*
X128205722Y-93900098D01*
X128280277Y-93933208D01*
X128314258Y-93953902D01*
X128376127Y-94004460D01*
X128429846Y-94067841D01*
X128470162Y-94133818D01*
X128504238Y-94209613D01*
X128512827Y-94233071D01*
X128294840Y-94311107D01*
X128269023Y-94241884D01*
X128230707Y-94178797D01*
X128182000Y-94129390D01*
X128118201Y-94091437D01*
X128044408Y-94071001D01*
X127989659Y-94067108D01*
X127907983Y-94075924D01*
X127836244Y-94102371D01*
X127774443Y-94146449D01*
X127722579Y-94208159D01*
X127686177Y-94275440D01*
X127658716Y-94354188D01*
X127642294Y-94430811D01*
X127632441Y-94515857D01*
X127629248Y-94593164D01*
X127629157Y-94609327D01*
X127631491Y-94687262D01*
X127640455Y-94773747D01*
X127656143Y-94852555D01*
X127678555Y-94923687D01*
X127713198Y-94996972D01*
X127724778Y-95015992D01*
X127770156Y-95073950D01*
X127830302Y-95122756D01*
X127899288Y-95152970D01*
X127977111Y-95164590D01*
X127987461Y-95164736D01*
X128061481Y-95156554D01*
X128133540Y-95128965D01*
X128181634Y-95095493D01*
X128232277Y-95040667D01*
X128272876Y-94971901D01*
X128301069Y-94897290D01*
X128520154Y-94983385D01*
X128491031Y-95051805D01*
X128445367Y-95132563D01*
X128391895Y-95201356D01*
X128330615Y-95258185D01*
X128261526Y-95303051D01*
X128184630Y-95335952D01*
X128099925Y-95356889D01*
X128007413Y-95365862D01*
X127983064Y-95366236D01*
G37*
G36*
X129707175Y-93889055D02*
G01*
X129707175Y-94090556D01*
X129261676Y-94090556D01*
X129261676Y-95342789D01*
X129003755Y-95342789D01*
X129003755Y-94090556D01*
X128581704Y-94090556D01*
X128581704Y-93889055D01*
X129707175Y-93889055D01*
G37*
G36*
X130794544Y-94934659D02*
G01*
X130789855Y-95009655D01*
X130772535Y-95088425D01*
X130742451Y-95157798D01*
X130699605Y-95217774D01*
X130661187Y-95254861D01*
X130597324Y-95298258D01*
X130522100Y-95330996D01*
X130448581Y-95350574D01*
X130366716Y-95362321D01*
X130292120Y-95366127D01*
X130276505Y-95366236D01*
X130196722Y-95362887D01*
X130123611Y-95352841D01*
X130046747Y-95332655D01*
X129978964Y-95303353D01*
X129928092Y-95270981D01*
X129870230Y-95217469D01*
X129823404Y-95151821D01*
X129791485Y-95084424D01*
X129768015Y-95007736D01*
X129762862Y-94984118D01*
X129999167Y-94944184D01*
X130025176Y-95023869D01*
X130064735Y-95087066D01*
X130128012Y-95139960D01*
X130196929Y-95167438D01*
X130279395Y-95178429D01*
X130294457Y-95178658D01*
X130370976Y-95173076D01*
X130445680Y-95151644D01*
X130509230Y-95106324D01*
X130547361Y-95039124D01*
X130559811Y-94964111D01*
X130560071Y-94950046D01*
X130549767Y-94877374D01*
X130533692Y-94842702D01*
X130483340Y-94787678D01*
X130461519Y-94772726D01*
X130393831Y-94739645D01*
X130352709Y-94725465D01*
X130279743Y-94703157D01*
X130218986Y-94685165D01*
X130148192Y-94663672D01*
X130078406Y-94638679D01*
X130007852Y-94606794D01*
X129969491Y-94584048D01*
X129912846Y-94536770D01*
X129864961Y-94475982D01*
X129851156Y-94451791D01*
X129824351Y-94380489D01*
X129811738Y-94303295D01*
X129809757Y-94253221D01*
X129815542Y-94177096D01*
X129836322Y-94099542D01*
X129872214Y-94032062D01*
X129923219Y-93974657D01*
X129930657Y-93968190D01*
X129997175Y-93923310D01*
X130065033Y-93894559D01*
X130141902Y-93875626D01*
X130214961Y-93867211D01*
X130267346Y-93865608D01*
X130341127Y-93868442D01*
X130419228Y-93878910D01*
X130497967Y-93900320D01*
X130565487Y-93931804D01*
X130587914Y-93946208D01*
X130647356Y-93998820D01*
X130695437Y-94065979D01*
X130728638Y-94137890D01*
X130747649Y-94199366D01*
X130510612Y-94240765D01*
X130482787Y-94165820D01*
X130432698Y-94102708D01*
X130363101Y-94063638D01*
X130286199Y-94049175D01*
X130261484Y-94048424D01*
X130184568Y-94056889D01*
X130115505Y-94087693D01*
X130100650Y-94099715D01*
X130058335Y-94160989D01*
X130044285Y-94236568D01*
X130044230Y-94242230D01*
X130055274Y-94315470D01*
X130069875Y-94346278D01*
X130122769Y-94401301D01*
X130146812Y-94416986D01*
X130216171Y-94448370D01*
X130285665Y-94472871D01*
X130345381Y-94491725D01*
X130415981Y-94514192D01*
X130492843Y-94541275D01*
X130565533Y-94571622D01*
X130590845Y-94584415D01*
X130653120Y-94623785D01*
X130707349Y-94673075D01*
X130751195Y-94736056D01*
X130772562Y-94785549D01*
X130789714Y-94859563D01*
X130794544Y-94934659D01*
G37*
G36*
X128025563Y-97906236D02*
G01*
X127949897Y-97903122D01*
X127861465Y-97890471D01*
X127779867Y-97868088D01*
X127705102Y-97835974D01*
X127637171Y-97794129D01*
X127576073Y-97742551D01*
X127542695Y-97706934D01*
X127493300Y-97640779D01*
X127452277Y-97566878D01*
X127419626Y-97485232D01*
X127399533Y-97414337D01*
X127384799Y-97338486D01*
X127375422Y-97257676D01*
X127371404Y-97171910D01*
X127371236Y-97149694D01*
X127373841Y-97062287D01*
X127381655Y-96980136D01*
X127394678Y-96903239D01*
X127412910Y-96831598D01*
X127443026Y-96749436D01*
X127481281Y-96675485D01*
X127527676Y-96609746D01*
X127537932Y-96597583D01*
X127593618Y-96542278D01*
X127656263Y-96496346D01*
X127725867Y-96459788D01*
X127802430Y-96432604D01*
X127885951Y-96414794D01*
X127976431Y-96406358D01*
X128014572Y-96405608D01*
X128091989Y-96408661D01*
X128175537Y-96419938D01*
X128251793Y-96439525D01*
X128320755Y-96467422D01*
X128365549Y-96492436D01*
X128429800Y-96541529D01*
X128484800Y-96601979D01*
X128525337Y-96664190D01*
X128558792Y-96735095D01*
X128567049Y-96756951D01*
X128342468Y-96827660D01*
X128307241Y-96752707D01*
X128260087Y-96693261D01*
X128201007Y-96649323D01*
X128129999Y-96620893D01*
X128047065Y-96607970D01*
X128016770Y-96607108D01*
X127937948Y-96613805D01*
X127858555Y-96637859D01*
X127790566Y-96679407D01*
X127733980Y-96738449D01*
X127727709Y-96747060D01*
X127689308Y-96814144D01*
X127660339Y-96892938D01*
X127643015Y-96969798D01*
X127632621Y-97055261D01*
X127629253Y-97133052D01*
X127629157Y-97149327D01*
X127631741Y-97228475D01*
X127639496Y-97301970D01*
X127655626Y-97382702D01*
X127679201Y-97455293D01*
X127716114Y-97529695D01*
X127735036Y-97558190D01*
X127785320Y-97615291D01*
X127852491Y-97663377D01*
X127930011Y-97693144D01*
X128006331Y-97704163D01*
X128029593Y-97704736D01*
X128112207Y-97698530D01*
X128188545Y-97679912D01*
X128258606Y-97648882D01*
X128322392Y-97605440D01*
X128356023Y-97575043D01*
X128356023Y-97315290D01*
X128027761Y-97315290D01*
X128027761Y-97132475D01*
X128590496Y-97132475D01*
X128590496Y-97667000D01*
X128532865Y-97724905D01*
X128474144Y-97770489D01*
X128408370Y-97810532D01*
X128345032Y-97841023D01*
X128268600Y-97869554D01*
X128189877Y-97889933D01*
X128108865Y-97902160D01*
X128025563Y-97906236D01*
G37*
D13*
%TO.C,C7*%
X130916000Y-98698164D02*
X130916000Y-98913836D01*
X130196000Y-98698164D02*
X130196000Y-98913836D01*
%TO.C,C6*%
X130916000Y-100730164D02*
X130916000Y-100945836D01*
X130196000Y-100730164D02*
X130196000Y-100945836D01*
%TO.C,R3*%
X135990359Y-83948000D02*
X136297641Y-83948000D01*
X135990359Y-84708000D02*
X136297641Y-84708000D01*
%TO.C,R2*%
X138583641Y-84708000D02*
X138276359Y-84708000D01*
X138583641Y-83948000D02*
X138276359Y-83948000D01*
%TO.C,TP3*%
X125592000Y-104516000D02*
X127392000Y-104516000D01*
X127392000Y-104516000D02*
X127392000Y-100716000D01*
X125592000Y-100716000D02*
X125592000Y-104516000D01*
X127392000Y-100716000D02*
X125592000Y-100716000D01*
%TO.C,R15*%
X125604000Y-80872359D02*
X125604000Y-81179641D01*
X126364000Y-80872359D02*
X126364000Y-81179641D01*
%TO.C,R13*%
X140080000Y-81179641D02*
X140080000Y-80872359D01*
X139320000Y-81179641D02*
X139320000Y-80872359D01*
%TO.C,R12*%
X138276359Y-91568000D02*
X138583641Y-91568000D01*
X138276359Y-92328000D02*
X138583641Y-92328000D01*
%TO.C,L2*%
X135662000Y-107162000D02*
X135662000Y-102642000D01*
X140182000Y-107162000D02*
X140182000Y-102642000D01*
X135662000Y-107162000D02*
X135812000Y-107162000D01*
X135662000Y-102642000D02*
X135812000Y-102642000D01*
X140182000Y-107162000D02*
X140032000Y-107162000D01*
X140182000Y-102642000D02*
X140032000Y-102642000D01*
%TO.C,J2*%
X138490000Y-79442000D02*
X138490000Y-80772000D01*
X137160000Y-79442000D02*
X138490000Y-79442000D01*
X135890000Y-79442000D02*
X128210000Y-79442000D01*
X135890000Y-79442000D02*
X135890000Y-82102000D01*
X128210000Y-79442000D02*
X128210000Y-82102000D01*
X135890000Y-82102000D02*
X128210000Y-82102000D01*
%TO.C,C5*%
X138322164Y-90064000D02*
X138537836Y-90064000D01*
X138322164Y-90784000D02*
X138537836Y-90784000D01*
%TO.C,U1*%
X125230000Y-52080000D02*
X141470000Y-52080000D01*
X125230000Y-59700000D02*
X125230000Y-52080000D01*
X125230000Y-76320000D02*
X125230000Y-75700000D01*
X127350000Y-76320000D02*
X125230000Y-76320000D01*
X141470000Y-52080000D02*
X141470000Y-59700000D01*
X141470000Y-75700000D02*
X141470000Y-76320000D01*
X141470000Y-76320000D02*
X139350000Y-76320000D01*
X124800000Y-59700000D02*
X124560000Y-59364000D01*
X125040000Y-59364000D01*
X124800000Y-59700000D01*
G36*
X124800000Y-59700000D02*
G01*
X124560000Y-59364000D01*
X125040000Y-59364000D01*
X124800000Y-59700000D01*
G37*
%TO.C,C3*%
X133965836Y-89260000D02*
X133750164Y-89260000D01*
X133965836Y-88540000D02*
X133750164Y-88540000D01*
%TO.C,U3*%
X133217500Y-104750000D02*
X134017500Y-104750000D01*
X133217500Y-104750000D02*
X132417500Y-104750000D01*
X133217500Y-101630000D02*
X134017500Y-101630000D01*
X133217500Y-101630000D02*
X132417500Y-101630000D01*
X134757500Y-105030000D02*
X134277500Y-105030000D01*
X134517500Y-104700000D01*
X134757500Y-105030000D01*
G36*
X134757500Y-105030000D02*
G01*
X134277500Y-105030000D01*
X134517500Y-104700000D01*
X134757500Y-105030000D01*
G37*
%TO.C,R1*%
X134011641Y-86232000D02*
X133704359Y-86232000D01*
X134011641Y-85472000D02*
X133704359Y-85472000D01*
%TO.C,C2*%
X133937836Y-92308000D02*
X133722164Y-92308000D01*
X133937836Y-91588000D02*
X133722164Y-91588000D01*
%TO.C,R11*%
X126620000Y-80872359D02*
X126620000Y-81179641D01*
X127380000Y-80872359D02*
X127380000Y-81179641D01*
%TO.C,R5*%
X136297641Y-90804000D02*
X135990359Y-90804000D01*
X136297641Y-90044000D02*
X135990359Y-90044000D01*
%TO.C,R9*%
X141096000Y-78586359D02*
X141096000Y-78893641D01*
X140336000Y-78586359D02*
X140336000Y-78893641D01*
%TO.C,D1*%
X133174500Y-98008000D02*
X133824500Y-98008000D01*
X133174500Y-98008000D02*
X132524500Y-98008000D01*
X133174500Y-101128000D02*
X133824500Y-101128000D01*
X133174500Y-101128000D02*
X132524500Y-101128000D01*
X132012000Y-98058000D02*
X131772000Y-97728000D01*
X132252000Y-97728000D01*
X132012000Y-98058000D01*
G36*
X132012000Y-98058000D02*
G01*
X131772000Y-97728000D01*
X132252000Y-97728000D01*
X132012000Y-98058000D01*
G37*
%TO.C,R14*%
X140336000Y-80872359D02*
X140336000Y-81179641D01*
X141096000Y-80872359D02*
X141096000Y-81179641D01*
%TO.C,R7*%
X126620000Y-78893641D02*
X126620000Y-78586359D01*
X127380000Y-78893641D02*
X127380000Y-78586359D01*
%TO.C,C4*%
X126344000Y-78632164D02*
X126344000Y-78847836D01*
X125624000Y-78632164D02*
X125624000Y-78847836D01*
%TO.C,C1*%
X133965836Y-84688000D02*
X133750164Y-84688000D01*
X133965836Y-83968000D02*
X133750164Y-83968000D01*
%TO.C,R4*%
X133704359Y-90044000D02*
X134011641Y-90044000D01*
X133704359Y-90804000D02*
X134011641Y-90804000D01*
D14*
%TO.C,U2*%
X138214000Y-85816000D02*
X136614000Y-85816000D01*
X136614000Y-88936000D02*
X138214000Y-88936000D01*
D15*
X140014000Y-88326000D02*
G75*
G02*
X139814000Y-88326000I-100000J0D01*
G01*
X139814000Y-88326000D02*
G75*
G02*
X140014000Y-88326000I100000J0D01*
G01*
D13*
%TO.C,JP1*%
X130940000Y-85074000D02*
X128140000Y-85074000D01*
X130940000Y-83074000D02*
X130940000Y-85074000D01*
X128140000Y-85074000D02*
X128140000Y-83074000D01*
X128140000Y-83074000D02*
X130940000Y-83074000D01*
%TO.C,R6*%
X135990359Y-91568000D02*
X136297641Y-91568000D01*
X135990359Y-92328000D02*
X136297641Y-92328000D01*
%TD*%
M02*
