M48
; DRILL file {KiCad 8.0.2} date 2024-11-04T20:05:37-0500
; FORMAT={-:-/ absolute / metric / decimal}
; #@! TF.CreationDate,2024-11-04T20:05:37-05:00
; #@! TF.GenerationSoftware,Kicad,Pcbnew,8.0.2
; #@! TF.FileFunction,Plated,1,2,PTH
FMAT,2
METRIC
; #@! TA.AperFunction,Plated,PTH,ViaDrill
T1C0.300
; #@! TA.AperFunction,Plated,PTH,ComponentDrill
T2C0.700
; #@! TA.AperFunction,Plated,PTH,ComponentDrill
T3C1.000
%
G90
G05
T1
X125.984Y-79.502
X129.032Y-84.074
X129.54Y-77.978
X130.556Y-102.108
X130.81Y-84.074
X132.334Y-85.09
X132.334Y-86.868
X132.334Y-88.9
X132.334Y-90.678
X133.162Y-103.19
X135.382Y-62.7
X135.89Y-85.344
X136.144Y-91.186
X138.43Y-60.706
X138.684Y-81.026
X138.684Y-85.344
X139.192Y-77.978
X139.954Y-66.802
X140.462Y-74.422
X140.716Y-85.09
X140.716Y-86.868
X140.716Y-88.9
X140.716Y-90.678
X140.97Y-64.77
X141.224Y-75.184
X143.256Y-124.46
X143.256Y-126.238
X143.256Y-128.016
X143.256Y-129.794
X143.256Y-131.572
X144.78Y-124.46
X144.78Y-126.238
X144.78Y-128.016
X144.78Y-129.794
X144.78Y-131.572
T2
X126.492Y-101.616
X126.492Y-103.616
T3
X125.73Y-84.328
X125.73Y-86.868
X125.73Y-89.408
X125.73Y-91.948
X125.73Y-94.488
X125.73Y-97.028
X129.54Y-80.772
X132.08Y-80.772
X134.62Y-80.772
X137.16Y-80.772
M30
